<svg id="Layer_1" data-name="Layer 1" xmlns="http://www.w3.org/2000/svg" viewBox="0 0 200 200"><defs><style>.cls-2,.cls-5{fill:none;stroke:#1a7d71;stroke-miterlimit:10}.cls-2{stroke-width:2.05px}.cls-4{fill:#1a7d71}.cls-5{stroke-width:.68px}</style></defs><rect x="31.33" y="28.5" width="137.34" height="143" rx="11.43" ry="11.43" stroke-width="4" fill="none" stroke="#1a7d71" stroke-miterlimit="10"/><path class="cls-2" d="M134.69 90.23h-76A6.73 6.73 0 0052 96.94V114a6.74 6.74 0 006.71 6.72h6.18a4.23 4.23 0 008.46 0h47.83a4.23 4.23 0 108.45 0h5.08a6.74 6.74 0 006.72-6.72V96.94a6.73 6.73 0 00-6.74-6.71z"/><path stroke-width=".58" fill="none" stroke="#1a7d71" stroke-miterlimit="10" d="M92.58 83.5h45.83v-4.66h10.29v-4.97h-10.29v-4.34H92.58"/><path class="cls-4" d="M80.99 70.56h40.17v11.98H80.99z"/><path class="cls-2" d="M81.19 67.97v16.78"/><path class="cls-4" d="M57.86 84.75h5.48v5.48h-5.48zM74.69 77.74h5.48v12.49h-5.48zM131.5 84.75h5.48v5.48h-5.48z"/><path class="cls-5" d="M63.34 86.95h72.01"/><path class="cls-2" d="M124.95 77.9v5.16M132.67 77.9v5.16M128.81 80.19v2.87"/><rect x="64.89" y="95.61" width="63.61" height="21.46" rx="2.36" ry="2.36" stroke-width=".7" fill="none" stroke="#1a7d71" stroke-miterlimit="10"/><path class="cls-5" d="M67.7 99.59h24.87v6.75H67.7z"/><path class="cls-4" d="M94.63 111.84h6.55v2.79h-6.55zM103.13 111.84h6.55v2.79h-6.55zM111.39 111.84h6.55v2.79h-6.55zM119.42 111.84h6.55v2.79h-6.55zM94.63 108.31h6.55v2.79h-6.55zM103.13 108.31h6.55v2.79h-6.55zM111.39 108.31h6.55v2.79h-6.55zM119.42 108.31h6.55v2.79h-6.55z"/></svg>