<svg id="Layer_1" data-name="Layer 1" xmlns="http://www.w3.org/2000/svg" viewBox="0 0 200 200"><defs><style>.cls-2,.cls-3{fill:none;stroke-linejoin:round}.cls-3{stroke-width:4px}.cls-2,.cls-3{stroke:#c9326f}.cls-2{stroke-width:2px}</style></defs><path stroke-width="4" stroke="#c9326d" fill="none" stroke-linejoin="round" d="M176.01 171.5H23.99V54.92l15-26.42h44.95l15.13 26.42h76.94V171.5z"/><circle class="cls-2" cx="99.75" cy="101.67" r="14.92"/><path class="cls-2" d="M112.91 136.39H86.12c-5.19 0-8.61.55-8.61-8.61a8.64 8.64 0 018.61-8.62h26.79a8.64 8.64 0 018.61 8.62c0 10.15-3.87 8.61-8.61 8.61z"/><path class="cls-3" d="M133.1 96.27v-10.2a8.58 8.58 0 00-8.56-8.56h-9.19M65 128.89v8.18a8.58 8.58 0 008.55 8.56h9.19M82.72 77.51h-9.19A8.58 8.58 0 0065 86.07v10.2M115.35 145.63h9.19a8.58 8.58 0 008.56-8.56v-8.18"/></svg>