<svg id="Layer_1" data-name="Layer 1" xmlns="http://www.w3.org/2000/svg" viewBox="0 0 200 200"><defs><style>.cls-1,.cls-2{fill:none}.cls-2{stroke:#eb5b28;stroke-miterlimit:10;stroke-width:3.32px}.cls-3{fill:#eb5b28}</style></defs><path class="cls-1" d="M36.92 139.54a54.79 54.79 0 01-.12-79.08"/><path class="cls-2" d="M36.8 60.46a54.79 54.79 0 00.12 79.08M28.92 100A46 46 0 0143 66.8M43 66.8a46.15 46.15 0 00.08 66.45M49.25 127a37.47 37.47 0 010-53.83M49.21 73.13a37.47 37.47 0 000 53.83M55.41 120.67a28.84 28.84 0 010-41.21M55.41 79.46a28.84 28.84 0 000 41.21"/><path class="cls-1" d="M163.08 60.46a54.79 54.79 0 01.12 79.08"/><path class="cls-2" d="M163.2 139.54a54.79 54.79 0 00-.12-79.08M171.08 100A46 46 0 01157 133.2M157 133.2a46.15 46.15 0 00-.08-66.45M150.75 73a37.47 37.47 0 010 53.83M150.79 126.87a37.47 37.47 0 000-53.83M144.59 79.33a28.84 28.84 0 010 41.21M144.59 120.54a28.84 28.84 0 000-41.21"/><path class="cls-3" d="M99.88 118.87l8.88-8.79-8.88-8.78v17.57zM99.88 96.73l8.88-8.79-8.88-8.79v17.58z"/><path class="cls-3" d="M100 60a20.06 20.06 0 00-20 20v40a20 20 0 0040 0V80a20.06 20.06 0 00-20-20zm10.61 49.46a.87.87 0 01.26.62.84.84 0 01-.26.62l-11 10.88a.82.82 0 01-.61.25.92.92 0 01-.33-.06.88.88 0 01-.54-.81V101.3l-9.5 9.4a.87.87 0 11-1.23-1.24l10.37-10.25L87.41 89a.89.89 0 010-1.24.88.88 0 011.24 0l9.5 9.41V77.06a.87.87 0 011.48-.62l11 10.88a.87.87 0 01.26.62.85.85 0 01-.26.62L100.06 99z"/></svg>