<svg id="Layer_1" data-name="Layer 1" xmlns="http://www.w3.org/2000/svg" viewBox="0 0 200 200"><defs><style>.cls-1{fill:#43235c}.cls-2{fill:none}</style></defs><path class="cls-1" d="M123.45 138.86h-10.24v.19a.78.78 0 01-.34.65l-.65.46-1-1.28H87.08v.28h-1.59v-.28h-8.94a12.87 12.87 0 01-3.58-.48v4.12a17.94 17.94 0 003.58.36h15.93l.22-.3.42.3h15.12l-.87-1.23 1.95-1.37.91 1.3-1.85 1.3h15.07a21.3 21.3 0 002.31-.13v-4a17.18 17.18 0 01-2.31.11zm-33.62 3.62l-1.94-1.37.91-1.3 2 1.38z"/><path class="cls-2" d="M85.49 127.22h1.59v2.38h-1.59zM86.99 124.74h2.38v1.59h-2.38z"/><circle class="cls-2" cx="83.42" cy="117.58" r="1.67"/><path class="cls-2" d="M85.49 132v.68h.25a4.53 4.53 0 001.34-.22V132z"/><circle class="cls-2" cx="115.75" cy="117.58" r="1.67"/><path class="cls-2" d="M111.62 127.98h1.59v2.38h-1.59zM110.83 124.74h2.38v1.59h-2.38zM108.38 142.86h-.14l.04.07.1-.07z"/><path class="cls-2" transform="rotate(-35.14 101.017 147.088)" d="M99.81 146.28h2.38v1.59h-2.38z"/><path class="cls-2" d="M93.73 145.24l.91-1.3-1.52-1.08h-.64l-.7 1 1.95 1.38z"/><path class="cls-2" transform="rotate(-35.1 104.88 144.316)" d="M103.71 143.54h2.38v1.59h-2.38z"/><path class="cls-2" transform="rotate(-54.7 97.094 146.651)" d="M96.31 145.47h1.59v2.38h-1.59z"/><path class="cls-2" d="M99.22 96.27a24.14 24.14 0 10-24.14-24.14 24.17 24.17 0 0024.14 24.14zM85.49 132.67v1.7h1.59v-1.92a4.53 4.53 0 01-1.34.22zM111.62 132.74h1.59v2.38h-1.59zM90.3 104.76h18.78v9.62H90.3zM125.76 118.88v19.86c4.16-.57 10.77-3.68 10.77-20.9a13.1 13.1 0 00-13.08-13.08h-1v9.79a4.51 4.51 0 013.31 4.33zM85.49 136.75h1.59v2.11h-1.59zM111.62 137.51v1.13l-.32.22h1.91v-1.35h-1.59zM63.47 117.84c0 8.42 1.75 18.27 9.5 20.54v-19.5a4.49 4.49 0 014-4.44v-9.68h-.42a13.1 13.1 0 00-13.08 13.08zM91.76 124.74h2.38v1.59h-2.38zM101.29 124.74h2.38v1.59h-2.38zM96.52 124.74h2.38v1.59h-2.38zM106.06 124.74h2.38v1.59h-2.38z"/><path class="cls-1" d="M80.1 104.76h7.06v9.62H80.1zM99.22 100.27a28.14 28.14 0 10-28.14-28.14 28.17 28.17 0 0028.14 28.14zm0-52.27a24.14 24.14 0 11-24.14 24.13A24.16 24.16 0 0199.22 48zM92.69 142.56l-.21.3h.64l-.43-.3zM63.47 117.84a13.1 13.1 0 0113.08-13.08H77v-1.57a4.58 4.58 0 01.71-2.43h-1.16a17.1 17.1 0 00-17.08 17.08c0 18 7.35 23.37 13.5 24.66v-4.12c-7.75-2.27-9.5-12.12-9.5-20.54zM140.53 117.84a17.1 17.1 0 00-17.08-17.08h-1.75a4.5 4.5 0 01.72 2.43v1.57h1a13.1 13.1 0 0113.08 13.08c0 17.22-6.61 20.33-10.77 20.9v4c12.16-1.43 14.8-14.14 14.8-24.9zM109.08 103.19a4.58 4.58 0 01.71-2.43h-20.2a4.49 4.49 0 01.71 2.43v1.57h18.78zM87.17 103.19a1.43 1.43 0 00-1.43-1.43h-4.21a1.44 1.44 0 00-1.43 1.43v1.57h7.07zM112.22 104.76h7.06v9.62h-7.06zM119.28 103.19a1.43 1.43 0 00-1.43-1.43h-4.21a1.43 1.43 0 00-1.42 1.43v1.57h7.06z"/><path class="cls-1" d="M113.64 132.67h4.21a4.57 4.57 0 004.57-4.56v-13.56a4.45 4.45 0 00-1.16-.17h-2v.73c0 .78-.64.42-1.43.42h-4.21c-.78 0-1.42.36-1.42-.42v-.73h-3.14v13.73a4.57 4.57 0 004.58 4.56zm2.11-16.76a1.67 1.67 0 11-1.67 1.67 1.67 1.67 0 011.67-1.67zm-2.54 14.45h-1.59V128h1.59zm-2.38-5.62h2.38v1.59h-2.38zM108.38 142.86l-.1.07v-.07H93.12l1.52 1.08-.91 1.3-2-1.38.7-1H76.55a17.94 17.94 0 01-3.55-.36v9a4.51 4.51 0 004.5 4.5h43.79a4.51 4.51 0 004.5-4.5v-8.77a21.3 21.3 0 01-2.31.13zM97.62 148l-2-1.37.92-1.3 1.94 1.38zm2.86.42l-.91-1.3 2-1.37.91 1.3zm3.9-2.74l-.91-1.3 2-1.37.91 1.3zM81.53 132.67h4V132h1.59v.46a4.56 4.56 0 003.22-4.34v-13.74h-3.17v.73c0 .78-.64.42-1.43.42h-4.21c-.78 0-1.43.36-1.43-.42v-.73h-2.63a4 4 0 00-.5.06v13.67a4.56 4.56 0 004.56 4.56zm5.47-7.93h2.38v1.59H87zm-1.5 2.48h1.59v2.38h-1.6zm-2.07-11.31a1.67 1.67 0 11-1.67 1.67 1.66 1.66 0 011.66-1.67z"/><path class="cls-1" d="M73 118.88v19.5a12.87 12.87 0 003.58.48h8.94v-2.11h1.59v2.11h24.19l.32-.22v-1.13h1.59v1.35h10.24a17.18 17.18 0 002.31-.12v-19.86a4.51 4.51 0 00-3.34-4.33v13.56a4.57 4.57 0 01-4.57 4.56h-4.21a4.57 4.57 0 01-4.56-4.56v-13.73H90.3v13.73a4.56 4.56 0 01-3.22 4.34v1.92h-1.59v-1.7h-4a4.56 4.56 0 01-4.49-4.56v-13.67a4.49 4.49 0 00-4 4.44zm38.65 13.86h1.59v2.39h-1.59zm-5.56-8h2.39v1.59h-2.39zm-4.77 0h2.39v1.59h-2.39zm-4.77 0h2.39v1.59h-2.42zm-4.76 0h2.38v1.59h-2.41z"/><path class="cls-1" d="M81.53 115.53h4.21c.79 0 1.43.36 1.43-.42v-.73H80.1v.73c0 .78.65.42 1.43.42zM113.64 115.53h4.21c.79 0 1.43.36 1.43-.42v-.73h-7.06v.73c0 .78.64.42 1.42.42z"/></svg>