<svg id="Layer_1" data-name="Layer 1" xmlns="http://www.w3.org/2000/svg" viewBox="0 0 200 200"><defs><style>.cls-1{fill:none;stroke:#eb5b28;stroke-miterlimit:10;stroke-width:4px}.cls-2{fill:#eb5b28}</style></defs><path class="cls-1" d="M165.57 100H180"/><path class="cls-2" d="M159.05 108.52a8.52 8.52 0 10-8.52-8.52 8.53 8.53 0 008.52 8.52zm0-15a6.52 6.52 0 11-6.52 6.52 6.52 6.52 0 016.52-6.52z"/><path class="cls-1" d="M34.43 100H20"/><path class="cls-2" d="M41 91.48a8.52 8.52 0 108.47 8.52A8.53 8.53 0 0041 91.48zm0 15a6.52 6.52 0 116.47-6.48 6.52 6.52 0 01-6.47 6.52zM65 69.85v60.3h70v-60.3zm60.31 52.41h-2.5v-7.21h-3.61v7.21h-2.39v-7.21h-3.61v7.21h-2.39v-7.21h-3.61v7.21h-2.39v-7.21h-3.62v7.21h-2.38v-7.21h-3.62v7.21H92.8v-7.21h-3.61v7.21H86.8v-7.21h-3.61v7.21H80.8v-7.21h-3.61v7.21h-2.5V89.8h8.12v-7.37h6.43V78h22.61v4.42h5.81v7.38h7.65z"/></svg>