<svg id="Layer_1" data-name="Layer 1" xmlns="http://www.w3.org/2000/svg" viewBox="0 0 200 200"><defs><style>.cls-1{fill:none}.cls-2{fill:#23398e}</style></defs><path class="cls-1" d="M104.74 117.52q-1.76.12-3.51.12h-1.07c-1.8 4.3-9.41 6.9-17.6 7.59 2.36 2.58 9.47 4.95 18.62 4.95 9.44 0 16.71-2.53 18.82-5.2-7.3-.98-13.71-3.52-15.26-7.46zM126.86 122.42c11.15 0 19.47-3.57 19.47-6.76a1.48 1.48 0 000-.21l-.21-1.68h.22v-8.29c-4.14 3.09-12 4.72-19.47 4.72-1.07 0-2.14 0-3.21-.1v12.21c1.03.07 2.1.11 3.2.11zM123.48 91.54c1.11.08 2.26.13 3.44.13 10.47 0 18.45-3.15 19.38-6.18l-.07-.74.15-.09v-9.69c-4.16 3.06-12 4.67-19.44 4.67s-15.34-1.62-19.48-4.7v8.71c7.78.93 14.7 3.63 16.02 7.89z"/><path class="cls-1" d="M127 76.64c11 0 19.19-3.45 19.45-6.6V70c0-3.11-8.33-6.68-19.48-6.68-11 0-19.16 3.44-19.45 6.59-.05 3.17 8.28 6.73 19.48 6.73zM78.7 106h.07V94.63h-.64c-7.52 0-15.37-1.63-19.51-4.73v10.25a2 2 0 000 .25c0 3.19 8.33 6.76 19.48 6.76h.61v-.94zM101.26 99.62c1.09 0 2.13 0 3.16-.1V86.39c-1-.07-2.09-.11-3.19-.11h-.66v13.33zM81.73 128.42v10a2.46 2.46 0 000 .26c0 3.2 8.33 6.76 19.48 6.76s19.47-3.56 19.47-6.76a1.77 1.77 0 000-.23l-.17-1.66h.18v-8.33c-3.54 2.72-10.14 4.76-19.47 4.76s-15.95-2.09-19.49-4.8zM78.19 76.64c11 0 19.19-3.45 19.45-6.6V70c0-3.11-8.33-6.68-19.48-6.68-11 0-19.16 3.44-19.45 6.59 0 3.17 8.29 6.73 19.48 6.73z"/><path class="cls-1" d="M97.61 83.41v-8.44c-4.16 3.06-12 4.67-19.44 4.67S62.85 78 58.71 74.94v10c0 3.19 8.33 6.76 19.48 6.76H79c1.35-4.84 9.81-7.7 18.61-8.29zM120.24 94.24c-5.18-.67-9.92-2.12-12.83-4.3v9.3c6.53-.83 11.32-2.89 12.83-5zM96.75 117.45c-6-.51-11.7-2-15-4.53v9.37c7.31-.53 12.96-2.59 15-4.84zM119.82 109.72c-5-.68-9.56-2.1-12.41-4.2v8.74c6.07-.76 10.59-2.58 12.41-4.54zM123.71 94.57v12.52c1 .06 2.08.11 3.17.11 11.15 0 19.47-3.57 19.47-6.76a1.48 1.48 0 000-.21l-.21-1.69h.22V90c-4.16 3-12 4.66-19.41 4.66-1.1.01-2.17-.03-3.24-.09zM108.37 86.8c1.76 1.83 5.91 3.53 11.42 4.35-1.79-1.84-5.92-3.53-11.42-4.35zM78.1 110.2c-7.49 0-15.29-1.62-19.45-4.68v9.89a2.29 2.29 0 000 .25c0 3.19 8.33 6.76 19.48 6.76h.63v-12.23zM101.23 114.64c1.1 0 2.15 0 3.19-.1v-12c-1 .06-2.11.09-3.16.09h-.69v12z"/><path class="cls-1" d="M97 86.45c-7.42.61-12.84 2.76-14.6 5 7.3-.58 12.81-2.73 14.6-5zM81.79 97.92v9.14c7.12-.52 12.63-2.48 14.8-4.65-5.94-.53-11.52-2.05-14.8-4.49zM97.57 113.77v-8.29c-3.26 2.43-8.79 4-14.67 4.49 2.23 2.11 7.61 4 14.55 4.53l-.09-.73zM97.47 99.48l-.11-.94h.21V90c-3.36 2.46-9.08 4-15.08 4.48 1.89 2.3 7.51 4.44 14.98 5zM120.69 106.81v-8.86c-2.88 2.13-7.49 3.55-12.54 4.22 1.77 2 6.4 3.83 12.54 4.64z"/><path class="cls-2" d="M58.65 85.93v4.01c4.14 3.1 12 4.73 19.51 4.73h.64v-1.08a5.09 5.09 0 010-.55 2.51 2.51 0 010-.35 5.16 5.16 0 01.19-1h-.81c-11.15 0-19.48-3.57-19.48-6.76v-10c-1.88-1.39-3-3.08-3-5h3c.29-3.15 8.5-6.59 19.45-6.59 11.15 0 19.48 3.57 19.48 6.68V70v-.15h3c-.21-6.19-11.63-9.55-22.47-9.55s-22.48 3.42-22.48 9.76a5.27 5.27 0 000 .56v12.43h2.93c.01.27.02 2.6.04 2.88zM97.63 75v8.44c1-.07 2-.12 3-.13V70.4a6.62 6.62 0 01-3 4.6z"/><path class="cls-2" d="M58.64 101.06v4.46c4.16 3.06 12 4.68 19.45 4.68h.63v-1.08-1.92h-.62c-11.15 0-19.48-3.57-19.48-6.76a2 2 0 010-.25V89.94c-1.85-1.39-3-3.07-3-5v-1.86s-.07 2.25 0 3v13.79a3.64 3.64 0 000 .57v.37h3a2 2 0 00.02.25z"/><path class="cls-2" d="M58.65 89.94v-4.05-2.88h-2.96v1.86c-.01 2 1.11 3.68 2.96 5.07zM78.7 123.79v-.37a5.3 5.3 0 010-.57v-.44h-.6c-11.15 0-19.48-3.57-19.48-6.76a2.29 2.29 0 010-.25v-9.89a6.59 6.59 0 01-3-4.71 3.64 3.64 0 000 .57v13.73a3.43 3.43 0 000 .56c0 6.34 11.58 9.76 22.48 9.76h.63v-1.06a5.12 5.12 0 01-.03-.57z"/><path class="cls-2" d="M58.65 105.52v-4.46a2 2 0 010-.25h-3a6.59 6.59 0 003 4.71zM78.19 76.64v3c7.48 0 15.28-1.61 19.44-4.67V70c-.25 3.19-8.47 6.64-19.44 6.64zM100.64 70.37v-.48.17zM97.64 70v5a6.62 6.62 0 003-4.6v-.31-.17h-3V70zM78.19 76.64c-11.15 0-19.48-3.56-19.48-6.75a.86.86 0 000 .17 2.28 2.28 0 000 .26v4.62c4.14 3.08 12 4.7 19.48 4.7zM58.7 70.32a2.28 2.28 0 010-.26.86.86 0 010-.17h-3c0 2 1.12 3.66 3 5v-4.41zM149.4 70.37a6.62 6.62 0 01-3 4.6v9.69l.81-.43 1-.46.76.77-1.07 1 1.48-.11v.2M107.38 83.64h.07v-8.71c-1.88-1.39-3-3.08-3-5h3c.29-3.15 8.5-6.59 19.45-6.59 11.15 0 19.48 3.57 19.48 6.68V70v-.15h3c-.21-6.23-11.67-9.59-22.47-9.59s-22.48 3.42-22.48 9.76a5.27 5.27 0 000 .56v12.43h2.93zM146.3 85.49c-.93 3-8.91 6.18-19.38 6.18-1.18 0-2.33 0-3.44-.13a4.93 4.93 0 01.22 1.32v1.71c1.07.06 2.14.1 3.21.1 7.46 0 15.25-1.61 19.41-4.66v-4.26zM104.45 83.05h-.07v.32h.07zM149.33 101.54v-.61V101.54zM146.3 85.49a2 2 0 00.1-.58 1.5 1.5 0 000-.22z"/><path class="cls-2" d="M146.33 90v10.22a1.48 1.48 0 010 .21c0 3.19-8.32 6.76-19.47 6.76-1.09 0-2.14 0-3.17-.11v.32a3.77 3.77 0 010 .47 4.35 4.35 0 01-.06.74v1.48c1.07.06 2.14.1 3.21.1 7.51 0 15.33-1.63 19.47-4.72v-4.74l3 .07V85.69a6.8 6.8 0 01-2.98 4.31zM107.38 83.64v-.59h-2.93v.33c.98.06 1.96.14 2.93.26z"/><path class="cls-2" d="M149.32 85.48l-1.48.11 1.07-1-.76-.77-1 .46-.81.43a1.5 1.5 0 010 .22 2 2 0 01-.1.58V90a6.8 6.8 0 003-4.32zM146.33 105.48v10.18c0 3.19-8.32 6.76-19.47 6.76-1.1 0-2.17 0-3.21-.11v3c1.07.07 2.14.1 3.21.1 10.24 0 21.1-3 22.35-8.65l.12-.88v-14.34h-.12a6.91 6.91 0 01-2.88 3.94zM149.34 100.81h-.01v.12l.01-.12z"/><path class="cls-2" d="M146.33 105.48a6.91 6.91 0 002.88-3.94h.12v-.73l-3-.07zM127 76.64v3c7.48 0 15.28-1.61 19.44-4.67V70c-.3 3.19-8.52 6.64-19.44 6.64zM149.4 70.37v-.48.17z"/><path class="cls-2" d="M146.4 70v5a6.62 6.62 0 003-4.6v-.31-.17h-3V70zM127 76.64c-11.15 0-19.48-3.56-19.48-6.75a.86.86 0 000 .17 2.28 2.28 0 000 .26v4.62c4.14 3.08 12 4.7 19.48 4.7zM107.46 70.32a2.28 2.28 0 010-.26.86.86 0 010-.17h-3c0 2 1.12 3.66 3 5v-4.41zM107.4 114.26v1.15a2.29 2.29 0 000 .25 2.51 2.51 0 00.64 1.54c5.07-.66 9.73-2.08 12.63-4.21v-3.16l-.82-.11c-1.85 1.96-6.37 3.78-12.45 4.54zM97.58 115.66a1.8 1.8 0 000-.22l-.11-.94c-6.96-.5-12.34-2.42-14.57-4.5l-1.17.1v2.85c3.32 2.48 9 4 15 4.53a2.72 2.72 0 00.85-1.82zM104.42 115.1v-.56c-1 .06-2.09.1-3.19.1h-.66v2.14h-.12a4.58 4.58 0 01-.29.86h1.07q1.76 0 3.51-.12a5 5 0 01-.36-1.86 3.43 3.43 0 01.04-.56zM81.7 106v1h.06v-9.14a7.48 7.48 0 01-2.67-3.26h-.29v11.37zM100.64 84.91a5.16 5.16 0 01-.07.79v.59h.66c1.1 0 2.15 0 3.19.11v-.33-2.69q-1.57-.09-3.15-.09h-.62v1.15a3.87 3.87 0 01-.01.47zM108.37 86.8c5.5.82 9.66 2.51 11.42 4.35 1.17.17 2.41.31 3.69.39-1.32-4.26-8.24-7-16-7.89v1.26a2.85 2.85 0 00.89 1.89zM97 86.45a3.08 3.08 0 00.55-1l-.08-.74.15-.08v-1.22C88.81 84 80.35 86.86 79 91.65c1.18 0 2.33-.07 3.43-.16 1.73-2.28 7.15-4.43 14.57-5.04zM123.44 94.55a7.58 7.58 0 01-2.73 3.4v8.86l1.43.16.47-.18.22.25h.88V94.52z"/><path class="cls-2" d="M97.57 85.74v-.26a3.08 3.08 0 01-.55 1h.57zM97.61 84.51v.15l.82-.43 1-.45.75.76-1.07 1 1.48-.1v.21a5.16 5.16 0 00.07-.79 3.87 3.87 0 000-.48v-1.1c-1 0-2 .06-3 .13zM78.79 92.86h3a2.69 2.69 0 01.61-1.37c-1.1.09-2.25.14-3.43.16a5.16 5.16 0 00-.19 1 2.51 2.51 0 000 .35 5.09 5.09 0 000 .55v1.07h.32a5.18 5.18 0 01-.31-1.76zM100.57 86.29v-.59a5.61 5.61 0 01-.13.59zM81.72 108.82v1.25l1.17-.1a3 3 0 01-1.14-2.09v-.82h-.05v.82c0 .27.01.76.02.94zM97.55 85.48a2.26 2.26 0 00.09-.57 1.5 1.5 0 000-.22l-.15.08z"/><path class="cls-2" d="M97.64 84.91a2.26 2.26 0 01-.09.57v.93c.93-.07 1.88-.1 2.87-.12a5.61 5.61 0 00.13-.59v-.21l-1.48.1 1.07-1-.75-.76-1 .45-.82.43a1.5 1.5 0 01.07.2zM100.57 116.77v-.86-.25-1.03c-1.07 0-2.11-.06-3.12-.13l.11.94a1.8 1.8 0 010 .22 2.72 2.72 0 01-.83 1.79c1.13.1 2.27.16 3.41.18a4.58 4.58 0 00.29-.86zM120.71 93v.17a2.11 2.11 0 000-.26h3a4.93 4.93 0 00-.22-1.32c-1.28-.08-2.52-.22-3.69-.39a2.84 2.84 0 01.91 1.8zM107.43 86v.62l1 .14a2.85 2.85 0 01-.93-1.89v-1.26h-.07v2.29zM123.44 94.55h.27v-1.29a1.23 1.23 0 010 .27 5.07 5.07 0 01-.27 1.02zM123.28 107.58l-1.13 1h.1l1.39-.12v.18a4.35 4.35 0 00.06-.74 3.77 3.77 0 000-.47v-.32h-.88zM104.42 86.39h.25a5.27 5.27 0 01-.23-1.49v-1.53h-.07v2.69zM120.69 107.51l1.43-.54-1.43-.16v.7zM120.64 109.83v-1.5a3.13 3.13 0 01-.82 1.39z"/><path class="cls-2" d="M107.42 86.06v-.11-2.29c-1-.12-1.95-.2-2.93-.26v1.53a5.27 5.27 0 00.23 1.49c1 .06 1.86.15 2.75.26zM104.42 115.1a3.43 3.43 0 000 .56 5 5 0 00.36 1.86c1.1-.07 2.2-.18 3.28-.32a2.51 2.51 0 01-.64-1.54 2.29 2.29 0 010-.25v-1.15c-1 .12-2 .21-3 .28zM120.65 113v9c1 .14 1.92.23 3 .3v-12.2h-.44a7.86 7.86 0 01-2.56 2.9zM120 125c-2.11 2.67-9.38 5.2-18.82 5.2-9.15 0-16.26-2.37-18.62-4.95l-.83.07v3.13c3.54 2.71 10.13 4.75 19.45 4.75s15.93-2 19.47-4.76v-3.36zM78.77 106v0zM81.73 112.92a7.93 7.93 0 01-2.42-2.74h-.58v12.22c1 0 2 0 3-.12zM78.76 107.88v-.7h-.05v3h.58a5.19 5.19 0 01-.53-2.3z"/><path class="cls-2" d="M81.72 124.06v1.23l.83-.07a2.91 2.91 0 01-.85-1.59 1.48 1.48 0 010-.21 2.28 2.28 0 010-.27v-.86c-1 .07-2 .11-3 .12v.44a5.3 5.3 0 000 .57v.37h3a2.45 2.45 0 00.02.27zM123.21 110.07h.44v-1.48a2.84 2.84 0 01-.06.31 5.27 5.27 0 01-.38 1.17zM120.64 108.33v-.06a2.14 2.14 0 000-.62v-.14zM120.64 123.17a2 2 0 010 .25 1.27 1.27 0 010 .2A2.7 2.7 0 01120 125l.65.08v-1.17l3-.09v-1.48c-1.08-.07-2-.16-3-.3zM122.59 106.79l-.47.18.69.07zM79.31 110.18a7.93 7.93 0 002.42 2.74v-2.85c-.8.05-1.61.09-2.42.11zM81.7 106.23V106h-2.93v1.15q1.51 0 2.94-.12zM123.21 110.07c-.86-.06-1.72-.14-2.57-.24V113a7.86 7.86 0 002.57-2.93z"/><path class="cls-2" d="M81.73 109v-.21-.94-.82q-1.42.1-2.94.12v.7a5.19 5.19 0 00.55 2.3c.81 0 1.62-.06 2.42-.11zM122.25 108.56h-.1l1.13-1-.47-.54-.69-.07-1.43.54v.14a2.14 2.14 0 010 .62v1.56c.85.1 1.71.18 2.57.24a5.27 5.27 0 00.38-1.14 2.84 2.84 0 00.06-.31v-.18zm-1.23 1l1-.89zm1-.9l.1-.08zM120.65 128.41v10.22c0 3.2-8.33 6.76-19.47 6.76s-19.48-3.56-19.48-6.76a2.46 2.46 0 010-.26v-10a8.22 8.22 0 01-2.57-3h-.43v12.67a5.21 5.21 0 000 .55c0 6.34 11.58 9.76 22.48 9.76 10.24 0 21.08-3 22.35-8.65l.12-14.42h-.39a8.12 8.12 0 01-2.61 3.13z"/><path class="cls-2" d="M78.73 124v-.17a5.12 5.12 0 000 .56v1.06h.43a4.65 4.65 0 01-.43-1.45zM123.52 124.52a4.76 4.76 0 01-.26.78h.39v-.8z"/><path class="cls-2" d="M120.65 128.41a8.12 8.12 0 002.61-3.11c-.88-.06-1.75-.14-2.61-.25zM79.16 125.4a8.22 8.22 0 002.57 3v-3.13c-.85.08-1.73.12-2.57.13z"/><path class="cls-2" d="M81.73 124.26v-.2a2.45 2.45 0 010-.27h-3v.17a4.65 4.65 0 00.43 1.44c.86 0 1.72-.05 2.57-.11zM120.65 125.05c.86.11 1.73.19 2.61.25a4.76 4.76 0 00.26-.78h.13v-.73l-3 .09zM120.24 94.24c-1.51 2.11-6.3 4.17-12.84 5v1a2 2 0 000 .25 2.67 2.67 0 00.79 1.73c5-.67 9.66-2.09 12.54-4.22v-3.7zM104.42 102.53v-1.15a3.64 3.64 0 010-.57v-.37a3.64 3.64 0 010-.57v-.35c-1 .06-2.07.1-3.16.1v3c1.05 0 2.11-.03 3.16-.09zM123.71 93.26v-.4a1.09 1.09 0 010 .18z"/><path class="cls-2" d="M120.71 94.3v-1.15a2.64 2.64 0 01-.47 1.09zM104.38 100.44v.37h3a2 2 0 000 .25v1.22l.76-.09a2.67 2.67 0 01-.79-1.73 2 2 0 010-.25v-1c-1 .12-2 .21-3 .28v.35a3.64 3.64 0 00.03.6z"/><path class="cls-2" d="M104.4 100.81a3.64 3.64 0 000 .57v1.15h.41a5.13 5.13 0 01-.41-1.72z"/><path class="cls-2" d="M107.4 101.06a2 2 0 010-.25h-3a5.13 5.13 0 00.43 1.69q1.31-.09 2.58-.24v-1zM120.71 98a7.58 7.58 0 002.73-3.4c-.92-.06-1.83-.14-2.73-.25zM120.72 93.12v1.18c.9.11 1.81.19 2.73.25a5.07 5.07 0 00.25-1 1.23 1.23 0 000-.27V93a1.09 1.09 0 000-.18h-3a2.11 2.11 0 01.02.3zM97.58 100.44a1.64 1.64 0 000-.22l-.09-.74c-7.43-.56-13.09-2.7-15-5l-.69.05v3.38c3.28 2.44 8.86 4 14.77 4.49a2.92 2.92 0 001.01-1.96zM100.58 100.44v2.18h.69v-3h-.69v.6c-.01.07 0 .14 0 .22zM81.76 93.09V94.5l.69-.05a2.66 2.66 0 01-.7-1.63.24.24 0 010 .08zM100.57 101.54v-.6V101.54z"/><path class="cls-2" d="M97.58 100.44a2.92 2.92 0 01-1 2l1 .08v-1.76l3 .08v-.13-.24-.83c-1.06 0-2.1-.06-3.1-.13l.09.74a1.64 1.64 0 01.01.19zM100.08 102.61h.49v-1.08h-.12a4.68 4.68 0 01-.37 1.08z"/><path class="cls-2" d="M100.58 100.81h-.01v.13l.01-.13z"/><path class="cls-2" d="M100.45 101.54h.12v-.73l-3-.08v1.76c.83.06 1.67.1 2.5.12a4.68 4.68 0 00.38-1.07zM79.12 94.66a7.48 7.48 0 002.67 3.26v-3.38c-.88.06-1.79.1-2.67.12z"/><path class="cls-2" d="M81.8 93.5v-.21-.35a.24.24 0 000-.08h-3a5.18 5.18 0 00.33 1.8c.89 0 1.79-.06 2.68-.12z"/><circle cx="100" cy="100" r="70" stroke="#23398e" stroke-miterlimit="10" stroke-width="4" stroke-dasharray="10 10" fill="none"/></svg>