<svg id="Layer_1" data-name="Layer 1" xmlns="http://www.w3.org/2000/svg" viewBox="0 0 200 200"><defs><style>.cls-1,.cls-2{fill:none;stroke:#1c1f3d}.cls-1{stroke-miterlimit:10;stroke-width:3px}.cls-2{stroke-linejoin:round;stroke-width:4px}.cls-3{fill:#1c1f3d}</style></defs><path class="cls-1" d="M136.16 63.52v-.14c0-7.24-14.9-13.11-33.28-13.11s-33.29 5.87-33.29 13.11a4.62 4.62 0 00.06.74l-.06 22.82c0 7.24 14.91 13.1 33.29 13.1s33.28-5.86 33.28-13.1a4.44 4.44 0 000-.63z"/><path class="cls-1" d="M69.49 84c0 .24 0 4.52.06 4.76v22.08a6.15 6.15 0 00-.06.74c0 7.24 14.91 13.11 33.29 13.11s33.29-5.87 33.29-13.11V88.17v-.15"/><path class="cls-1" d="M69.49 112.18a6.15 6.15 0 00.06.74V135a6.15 6.15 0 00-.06.74c0 7.24 14.91 13.11 33.29 13.11s33.29-5.87 33.29-13.11V112.32v-.14M102.92 76.21c18.39 0 33.29-5.87 33.29-13.11M69.64 63.1c0 7.24 14.9 13.11 33.28 13.11"/><path class="cls-2" d="M170.73 171.57H25V50.48"/><path class="cls-3" d="M41.95 70.4L25 53.44 8.05 70.4V56.01L25 39.05l16.95 16.96V70.4z"/><path class="cls-2" d="M29.27 28.43H175v121.09"/><path class="cls-3" d="M158.05 129.6L175 146.56l16.95-16.96v14.39L175 160.94l-16.95-16.95V129.6z"/></svg>