<?xml version="1.0" encoding="UTF-8" standalone="no"?>
<svg
   id="Layer_1"
   data-name="Layer 1"
   viewBox="0 0 200 200"
   version="1.1"
   sodipodi:docname="ds.svg"
   inkscape:version="1.1.2 (b8e25be833, 2022-02-05)"
   xmlns:inkscape="http://www.inkscape.org/namespaces/inkscape"
   xmlns:sodipodi="http://sodipodi.sourceforge.net/DTD/sodipodi-0.dtd"
   xmlns="http://www.w3.org/2000/svg"
   xmlns:svg="http://www.w3.org/2000/svg">
  <sodipodi:namedview
     id="namedview3790"
     pagecolor="#ffffff"
     bordercolor="#666666"
     borderopacity="1.0"
     inkscape:pageshadow="2"
     inkscape:pageopacity="0.0"
     inkscape:pagecheckerboard="0"
     showgrid="false"
     inkscape:zoom="4.365"
     inkscape:cx="100.11455"
     inkscape:cy="100.11455"
     inkscape:window-width="2560"
     inkscape:window-height="1369"
     inkscape:window-x="-8"
     inkscape:window-y="-8"
     inkscape:window-maximized="1"
     inkscape:current-layer="Layer_1" />
  <defs
     id="defs3773">
    <style
       id="style3771">.cls-1,.cls-2{fill:none;stroke:#1c1f3d}.cls-1{stroke-miterlimit:10;stroke-width:3px}.cls-2{stroke-linejoin:round;stroke-width:4px}.cls-3{fill:#1c1f3d}</style>
  </defs>
  <path
     class="cls-1"
     d="m 133.48874,86.674803 v -0.160338 c 0,-8.291741 -14.99373,-15.014466 -33.489339,-15.014466 -18.495616,0 -33.499403,6.722725 -33.499403,15.014466 a 4.6490607,5.2911391 0 0 0 0.06038,0.847499 l -0.06038,26.135016 c 0,8.29174 15.003787,15.00302 33.499403,15.00302 18.495609,0 33.489339,-6.71128 33.489339,-15.00302 a 4.4679285,5.0849908 0 0 0 0,-0.72152 z"
     id="path3775" />
  <path
     class="cls-2"
     d="M170.73 171.57H25V50.48"
     id="path3781" />
  <path
     class="cls-3"
     d="M41.95 70.4L25 53.44 8.05 70.4V56.01L25 39.05l16.95 16.96V70.4z"
     id="path3783" />
  <path
     class="cls-2"
     d="M29.27 28.43H175v121.09"
     id="path3785" />
  <path
     class="cls-3"
     d="M158.05 129.6L175 146.56l16.95-16.96v14.39L175 160.94l-16.95-16.95V129.6z"
     id="path3787" />
  <ellipse
     style="fill:#ffffff;stroke:#1c1f3d;stroke-width:3;stroke-linejoin:bevel;stroke-miterlimit:10;stroke-dasharray:none;stroke-opacity:1"
     id="path4573"
     cx="100"
     cy="84.560005"
     rx="33.5"
     ry="13.5" />
</svg>
