<svg id="Layer_1" data-name="Layer 1" xmlns="http://www.w3.org/2000/svg" viewBox="0 0 200 200"><defs><style>.cls-2{fill:none}.cls-3{fill:#c9326d}</style></defs><path stroke="#c9326d" stroke-linejoin="round" stroke-width="4" fill="none" d="M176.01 171.5H23.99V54.92l15-26.42h44.95l15.13 26.42h76.94V171.5z"/><path class="cls-2" d="M130.91 110.81l.05-.14 1.21.38c-.26.84-.51 1.59-.74 2.25a36.06 36.06 0 006.9 8v-19.89c-3.97 3.51-6.84 7.2-7.42 9.4zM125.6 113.11l-1.17-.5 1.35-3.16c-1.25-2.41-4.63-6.41-9-10v23.33c5-3.93 8.69-8.45 9.37-11v-.06zM142 124.34a41.83 41.83 0 005.67 3.62V95a41.39 41.39 0 00-5.67 3.5zM102.17 92v38a28.76 28.76 0 0011-4.55V96.72a27.38 27.38 0 00-11-4.72zM89 95.23v31.3a24.59 24.59 0 009.54 3.47V91.91A25.5 25.5 0 0089 95.23zM51.37 93.54v33.91a40.36 40.36 0 007.06-4.23V98a40.61 40.61 0 00-7.06-4.46zM62.06 101v19.23c3.77-3.41 6.47-6.93 7-9.06v-.16l-.12.35-1.19-.36c.26-.82.54-1.6.81-2.34a35.65 35.65 0 00-6.5-7.66zM85.4 124.14V97.52c-6 4.25-10.82 9.78-11.59 12.69v.12c0-.14.09-.26.13-.4l1.22.38c-.29.91-.57 1.71-.83 2.45 1.58 2.82 5.85 7.56 11.07 11.38z"/><path class="cls-3" d="M147.63 130.92v-3a41.83 41.83 0 01-5.67-3.62v2.5h-3.63v-5.51a36.06 36.06 0 01-6.9-8c-1 2.88-1.58 4.21-1.61 4.27v.09l-.43.66-.06.09c5.71 7.68 18.22 16.88 27.93 16.88v-4.58a18 18 0 01-6-1.13v1.35zM128.81 105.54a11.51 11.51 0 012.1 5.27c.58-2.2 3.45-5.89 7.42-9.4v-4.67H142v1.76a41.39 41.39 0 015.63-3.5v-1.6h3.63v.07a18.47 18.47 0 016-1.09V87.8c-9.45 0-20.66 7.71-26.68 15-.48.61-.92 1.21-1.31 1.8zM126.19 111.79v-.13M116.82 122.78v4.59h-3.63v-2a28.76 28.76 0 01-11 4.55v2.14h-2.06v2.65c10.49-.13 23.12-9.61 28.35-17.43a11.75 11.75 0 01-2.27-5.5c-.7 2.55-4.43 7.07-9.39 11zM102.17 89.89V92a27.38 27.38 0 0111 4.75v-2.5h3.63v5.2c4.33 3.59 7.71 7.59 9 10l2.2-5.15c-5.61-7.74-18.09-17.1-27.86-17.1v2.69zM99.89 134.72zM130.91 110.81a.7.7 0 000 .14v-.11z"/><path class="cls-3" d="M130.88 111a.7.7 0 010-.14 11.51 11.51 0 00-2.1-5.27l-2.59 6.12v.13a11.75 11.75 0 002.27 5.5c.13-.2.24-.4.36-.59.31-.75 1.04-2.65 2.06-5.75zM98.54 132.07V130a24.59 24.59 0 01-9.54-3.47h-3.6v-2.44c-5.22-3.82-9.49-8.56-11.06-11.38a45.24 45.24 0 01-1.8 4.45l-.4.58c5.65 7.64 18.06 16.79 27.75 16.93v-2.65zM69.09 111.19a3.28 3.28 0 00.1-.49M85.4 97.52V95.2H89a25.5 25.5 0 019.51-3.32v-2h1.57V87.2c-10.54 0-23.31 9.61-28.57 17.51a11.86 11.86 0 012.27 5.5c.8-2.91 5.58-8.44 11.62-12.69zM99.89 132.07v2.65h.22v-2.65zM62.06 120.25v3.55h-3.63v-.58a40.36 40.36 0 01-7.06 4.23v4.88h-3.63v-3.51a18.07 18.07 0 01-5 .77v4.61c9.76 0 21.43-8.23 27.29-15.72l.22-.3c.08-.09.14-.19.21-.28.29-.39.57-.8.85-1.21a11.82 11.82 0 01-2.27-5.5c-.51 2.13-3.21 5.65-6.98 9.06z"/><path class="cls-3" d="M71.53 104.69v.09l.05-.07zM51.37 90.15v3.39A40.61 40.61 0 0158.43 98v-1.52h3.63V101a35.65 35.65 0 016.5 7.63c1-2.67 1.9-4.67 1.91-4.7l.27-.38C65 95.89 52.51 86.68 42.79 86.68v4.62a17 17 0 015 .81v-2z"/><path class="cls-3" d="M73.81 110.21a11.86 11.86 0 00-2.27-5.5l-.05.07c-.3.69-1.36 3.1-2.3 5.92a3.28 3.28 0 01-.1.49 11.82 11.82 0 002.27 5.5l.08-.11a54.38 54.38 0 002.28-6M113.19 96.72v28.66a44 44 0 003.63-2.6V99.45a43 43 0 00-3.63-2.73z"/><path class="cls-3" d="M116.82 94.25h-3.63v2.47a43 43 0 013.63 2.73zM113.19 127.37h3.63v-4.59a44 44 0 01-3.63 2.6zM58.43 98v25.27c1.28-1 2.5-2 3.63-3V101c-1.13-1-2.35-2.06-3.63-3z"/><path class="cls-3" d="M58.43 123.8h3.63v-3.55c-1.13 1-2.35 2-3.63 3zM62.06 96.48h-3.63V98c1.28 1 2.5 2 3.63 3.07zM138.33 101.41v19.92c1.13 1 2.35 2 3.63 3V98.5c-1.28.93-2.5 1.91-3.63 2.91z"/><path class="cls-3" d="M142 96.74h-3.63v4.67c1.13-1 2.35-2 3.63-2.91zM138.33 126.84H142v-2.5c-1.28-1-2.5-2-3.63-3zM85.4 97.52v26.62a39.86 39.86 0 003.6 2.39v-31.3a42.62 42.62 0 00-3.6 2.29z"/><path class="cls-3" d="M89 95.2h-3.6v2.32a42.62 42.62 0 013.6-2.29zM85.4 126.58H89a39.86 39.86 0 01-3.63-2.39zM147.63 95v33a29.6 29.6 0 003.63 1.61V93.5a28.93 28.93 0 00-3.63 1.5z"/><path class="cls-3" d="M147.63 130.92h3.63v-1.35a29.6 29.6 0 01-3.63-1.61zM147.63 93.43V95a28.93 28.93 0 013.63-1.53v-.07zM100.11 91.82c-.52 0-1 0-1.57.09V130a12 12 0 001.46.09 14.52 14.52 0 002.17-.17V92a16 16 0 00-2.06-.18z"/><path class="cls-3" d="M100.11 130.11v2h2.06v-2.14a14.52 14.52 0 01-2.17.17zM102.17 92v-2.11h-2.06v1.93a16 16 0 012.06.18zM100 130.1a12 12 0 01-1.46-.09v2.06h1.35v-2zM100.11 89.89h-1.57v2c.53 0 1-.09 1.57-.09z"/><path class="cls-3" d="M100 130.1h-.11v2h.22v-2zM51.37 93.54a25.06 25.06 0 00-3.63-1.43v36.71a27.71 27.71 0 003.63-1.37z"/><path class="cls-3" d="M51.37 132.33v-4.88a27.71 27.71 0 01-3.63 1.37v3.51zM51.37 90.15h-3.63v2a25.06 25.06 0 013.63 1.43z"/><path d="M71.37 116.7c-.28.41-.56.82-.85 1.21.3-.42.58-.82.85-1.21z" fill="#ececed"/></svg>