<svg data-name="Layer 1" xmlns="http://www.w3.org/2000/svg" viewBox="0 0 200 200"><path d="M118.13 71.63H81.87a10.27 10.27 0 00-10.24 10.24v36.26a10.27 10.27 0 0010.24 10.24h36.26a10.27 10.27 0 0010.24-10.24V81.87a10.27 10.27 0 00-10.24-10.24zM114.55 101l-13.84 13.84a1 1 0 01-.71.28.93.93 0 01-.71-.28L85.45 101a9.49 9.49 0 0113.42-13.38l1.13 1.13 1.13-1.13A9.49 9.49 0 01114.55 101z" fill="#1a7d71"/><rect x="31.33" y="28.5" width="137.34" height="143" rx="11.43" ry="11.43" fill="none" stroke="#1a7d71" stroke-miterlimit="10" stroke-width="4"/></svg>