<svg data-name="Layer 1" xmlns="http://www.w3.org/2000/svg" viewBox="0 0 200 200"><path stroke-width="4" stroke-linejoin="round" fill="none" stroke="#c9326d" d="M176.01 171.5H23.99V54.92l15-26.42h44.95l15.13 26.42h76.94V171.5z"/><path d="M133 84.35h0a21.35 21.35 0 00-30.2 0l-2.55 2.55-2.55-2.55a21.35 21.35 0 00-30.2 0h0a21.35 21.35 0 000 30.2l31.16 31.16a2.32 2.32 0 003.18 0L133 114.55a21.35 21.35 0 000-30.2z" stroke-miterlimit="10" stroke-width="4" fill="none" stroke="#c9326d"/><path stroke-linecap="round" stroke-width="2" stroke-linejoin="round" fill="none" stroke="#c9326d" d="M66.51 113.91h21.63L90.5 88.1l3.42 26.01 3-11.52 2.79 21.56 4.71-28.99 2.58 18.95 3.05-9.38 2.86 9.58h20.1"/></svg>