<svg id="Layer_1" data-name="Layer 1" xmlns="http://www.w3.org/2000/svg" viewBox="0 0 200 200"><defs><style>.cls-2{fill:none;stroke:#1a7d71;stroke-miterlimit:10;stroke-width:2px}</style></defs><path d="M150.05 110.17a1.47 1.47 0 011.46 1.46v2a1.47 1.47 0 01-1.46 1.46H50a1.47 1.47 0 01-1.46-1.46v-2a1.47 1.47 0 011.46-1.46h39.41a1.46 1.46 0 001.46 1.38h18.26a1.46 1.46 0 001.46-1.38h39.46m0-2H108.7l-.08 1.38H91.38l-.08-1.38H50a3.47 3.47 0 00-3.46 3.46v2a3.46 3.46 0 003.46 3.49h100.1a3.46 3.46 0 003.46-3.46v-2a3.47 3.47 0 00-3.46-3.46z" fill="#1a7d71"/><path class="cls-2" d="M148.2 42.88h-97a.73.73 0 00-.73.73v59.86a.73.73 0 00.73.73h97a.73.73 0 00.73-.73V43.61a.73.73 0 00-.73-.73z"/><path d="M168.61 116.72V41.88a13.42 13.42 0 00-13.38-13.38H44.77a13.42 13.42 0 00-13.38 13.38v116.24a13.42 13.42 0 0013.38 13.38h110.46a13.42 13.42 0 0013.38-13.38v-18.6h-9.86v13.8H142.8v-23.81h4v-4.42h8v4.33h4v5.32" stroke-width="4" fill="none" stroke="#1a7d71" stroke-miterlimit="10"/><path class="cls-2" d="M57.31 48.77h85.38v50.46H57.31z"/></svg>