<svg id="Layer_1" data-name="Layer 1" xmlns="http://www.w3.org/2000/svg" viewBox="0 0 200 200"><defs><style>.cls-2{fill:#264194}</style></defs><path stroke-miterlimit="10" fill="#1a7d71" stroke="#264194" stroke-width="5.42" d="M101.91 90.54l35.91 35.92"/><path class="cls-2" d="M118.26 73.21l-12-12a2.19 2.19 0 00-3.07 0l-1.35 1.35a2.17 2.17 0 000 3.07l.53.54-3.34 3.34-1-1a1.56 1.56 0 00-2.21 0 1.58 1.58 0 000 2.21l1 1-13.3 13.38-1-1a1.58 1.58 0 00-2.21 0 1.56 1.56 0 000 2.21l1 1L78 90.65l-.53-.54a2.19 2.19 0 00-3.07 0L73 91.47a2.15 2.15 0 000 3.06l12 12a2.19 2.19 0 003.07 0l1.35-1.36a2.17 2.17 0 000-3.06l-.54-.54 3.32-3.37 1 1a1.57 1.57 0 102.18-2.2l-1-1 13.34-13.33 1 1a1.56 1.56 0 002.21-2.21l-1-1 3.35-3.34.53.54a2.19 2.19 0 003.07 0l1.35-1.36a2.17 2.17 0 00.03-3.09z"/><rect class="cls-2" x="67.33" y="128.54" width="30.32" height="4.87" rx="2.44" ry="2.44"/><rect class="cls-2" x="62.18" y="134.51" width="40.85" height="4.87" rx="2.44" ry="2.44"/><circle cx="100" cy="100" r="70" fill="none" stroke="#23398e" stroke-width="4" stroke-dasharray="10 10" stroke-miterlimit="10"/></svg>