<svg id="Layer_1" data-name="Layer 1" xmlns="http://www.w3.org/2000/svg" viewBox="0 0 200 200"><defs><style>.cls-1,.cls-2{fill:none;stroke:#1a7d71;stroke-miterlimit:10}.cls-1{stroke-width:4px}.cls-2{stroke-width:2.12px}.cls-3{fill:#1a7d71}</style></defs><path class="cls-1" d="M58.78 142.74h7.59M58.78 147.89h7.59M43.78 140.5a11.57 11.57 0 017.87-2.82h7.13v15.93h-7.13"/><path class="cls-1" d="M31.94 120.79V41.88A13.42 13.42 0 0145.32 28.5h109.36a13.42 13.42 0 0113.38 13.38v116.24a13.42 13.42 0 01-13.38 13.38H45.32a13.42 13.42 0 01-13.38-13.38v-12.29h8.29s2.91 7.82 11.42 7.82"/><path class="cls-2" d="M149.64 106.51H75a4.25 4.25 0 00-4.24 4.23v19.9a4.26 4.26 0 004.24 4.24h74.66a4.25 4.25 0 004.23-4.24v-19.9a4.24 4.24 0 00-4.25-4.23z"/><path class="cls-3" d="M109.66 110.53a.52.52 0 01.52.52v4.45a.52.52 0 01-.52.52h-33a.53.53 0 01-.52-.52v-4.45a.53.53 0 01.52-.52h33m0-1.16h-33a1.68 1.68 0 00-1.66 1.68v4.45a1.68 1.68 0 001.67 1.68h33a1.68 1.68 0 001.68-1.68v-4.45a1.68 1.68 0 00-1.68-1.68zM98.28 119.67a.36.36 0 01.35.36v3a.35.35 0 01-.35.35H76a.35.35 0 01-.35-.35v-3a.35.35 0 01.35-.36h22.28m0-1.17H76a1.52 1.52 0 00-1.58 1.5v3a1.53 1.53 0 001.58 1.57h22.28A1.53 1.53 0 0099.8 123v-3a1.52 1.52 0 00-1.52-1.53zM148.3 113.14c0 .17-.07.31-.15.31h-9c-.08 0-.14-.14-.14-.31v-2.72c0-.17.06-.31.14-.31h9c.08 0 .15.14.15.31zM148.3 118.32c0 .18-.07.32-.15.32h-9c-.08 0-.14-.14-.14-.32v-2.71c0-.18.06-.32.14-.32h9c.08 0 .15.14.15.32z"/><path class="cls-2" d="M153.93 38.35H70.18a.63.63 0 00-.63.63v51.67a.63.63 0 00.63.63h34.3v6.49s.15 3.27-4.54 3.27-5.49 5-5.49 5h37.68s-.81-5-5.5-5-4.53-3.27-4.53-3.27v-6.49h31.83a.63.63 0 00.62-.63V39a.63.63 0 00-.62-.65z"/><path stroke-width="1.41" fill="none" stroke="#1a7d71" stroke-miterlimit="10" d="M73.55 42.36h76.9v40.1h-76.9z"/></svg>