<?xml version="1.0" encoding="UTF-8" standalone="no"?>
<svg
   id="Layer_1"
   data-name="Layer 1"
   viewBox="0 0 200 200"
   version="1.1"
   sodipodi:docname="people-law.svg"
   inkscape:version="1.1.2 (b8e25be833, 2022-02-05)"
   xmlns:inkscape="http://www.inkscape.org/namespaces/inkscape"
   xmlns:sodipodi="http://sodipodi.sourceforge.net/DTD/sodipodi-0.dtd"
   xmlns="http://www.w3.org/2000/svg"
   xmlns:svg="http://www.w3.org/2000/svg">
  <sodipodi:namedview
     id="namedview199"
     pagecolor="#ffffff"
     bordercolor="#666666"
     borderopacity="1.0"
     inkscape:pageshadow="2"
     inkscape:pageopacity="0.0"
     inkscape:pagecheckerboard="0"
     showgrid="false"
     inkscape:zoom="4.365"
     inkscape:cx="100"
     inkscape:cy="100.11455"
     inkscape:window-width="2560"
     inkscape:window-height="1369"
     inkscape:window-x="-8"
     inkscape:window-y="-8"
     inkscape:window-maximized="1"
     inkscape:current-layer="Layer_1" />
  <defs
     id="defs164">
    <style
       id="style162">.cls-1{fill:none}.cls-2{fill:#43235c}</style>
  </defs>
  <path
     class="cls-1"
     d="M49.13 106h17.09c.06-.42.1-.86.14-1.33a21.76 21.76 0 01-18.74-14H18.76A10.76 10.76 0 008 101.4c0 4.85.68 7.79 2.16 9.26s4.13 1.51 7.42 1.49h20.49A13 13 0 0149.13 106zM125.7 99.1v1.07a19.48 19.48 0 005.59 1.92v-.69a13 13 0 0113-13h9.16a20.43 20.43 0 00.65-3.24 21.76 21.76 0 01-12.73-19.78v-.69a19.41 19.41 0 00-25.67 14.22 25.4 25.4 0 0110 20.19zM134.07 112.27a8.6 8.6 0 01-2.13-4h-8A25.5 25.5 0 01105.52 124a12.3 12.3 0 00.5 2h15.5a15.11 15.11 0 0110 3.75h21.38c.8 0 1.59 0 2.34.06 2.7.11 4.83.19 6.21-1.13s2.2-4.6 2.2-9.68a10.74 10.74 0 00-1-4.57h-19.54c-3.66.01-6.83.04-9.04-2.16z"
     id="path166" />
  <path
     class="cls-1"
     d="M154.19 82.66a19.5 19.5 0 00-10.56-17 19.46 19.46 0 0010.56 17z"
     id="path168" />
  <path
     class="cls-1"
     d="M156.47 83v.7a19.45 19.45 0 10-12.72-20.47A21.74 21.74 0 01156.47 83zM77.54 99.1v.76A19.48 19.48 0 0087.41 83a20.08 20.08 0 00-.17-2.47 22.74 22.74 0 00-9.7 18.57zM107.83 128.65c1.57 1.11 4 1.11 6.93 1.09h11.86a12.41 12.41 0 00-5.1-1.09zM57 64.2a19.5 19.5 0 10-10.79 18.58A21.73 21.73 0 0157 64.2z"
     id="path170" />
  <path
     class="cls-1"
     d="M77.78 102.33a21.74 21.74 0 00.82 3.67h7.51a13 13 0 0113 13c0 1 0 1.94-.09 2.82h1.25a21.87 21.87 0 002.7-.17c0-.84-.09-1.72-.09-2.69a13 13 0 0113-13H122a22 22 0 001-4.76A21.72 21.72 0 01113 83a20.28 20.28 0 01.16-2.6 22.7 22.7 0 00-23.81-1.19 22.54 22.54 0 01.33 3.79 21.76 21.76 0 01-11.9 19.33z"
     id="path172" />
  <path
     class="cls-1"
     d="M123 98.47A22.74 22.74 0 00115.32 82v.92A19.44 19.44 0 00123 98.47zM152.9 108.24h-18.59a5.9 5.9 0 001.37 2.42c1.54 1.53 4.13 1.51 7.42 1.49h18.09a10.74 10.74 0 00-8.29-3.91zM57 66.9a19.45 19.45 0 00-8.4 14.52A19.51 19.51 0 0057 66.9zM96.1 126a16.74 16.74 0 00.4-1.77 25.47 25.47 0 01-19.91-16h-8.47a8.79 8.79 0 01-2.27 4.48c-1.58 1.52-3.6 1.82-5.8 1.82-.67 0-1.36 0-2.06-.06s-1.49-.06-2.25-.06H39.41a10.74 10.74 0 00-1 4.57c0 4.85.69 7.79 2.16 9.26s4.13 1.51 7.42 1.49h20.35a15.11 15.11 0 0110-3.75zM98.77 124.45c-.09.55-.19 1.06-.3 1.54h5.18c-.15-.52-.27-1.07-.38-1.67a24.33 24.33 0 01-3 .18c-.49 0-1-.02-1.5-.05zM105.17 119c0 .83 0 1.59.07 2.31a22.83 22.83 0 0015.88-13.06h-5.2A10.77 10.77 0 00105.17 119zM124.75 106h6.76q-.09-.72-.15-1.53a21.83 21.83 0 01-5.91-1.82 24.89 24.89 0 01-.7 3.35z"
     id="path174" />
  <path
     class="cls-1"
     d="M58.08 112.21c2.7.11 4.82.19 6.2-1.13a6.27 6.27 0 001.49-2.84H49.13a10.7 10.7 0 00-8.28 3.91h14.89c.8 0 1.58.03 2.34.06zM134.73 104.69h-1.09c.05.46.1.89.16 1.3h19.1a13 13 0 0111.1 6.16h17.28c.8 0 1.59 0 2.35.06 2.69.11 4.82.19 6.2-1.13s2.2-4.59 2.2-9.68a10.76 10.76 0 00-10.75-10.75h-26.22a21.76 21.76 0 01-20.33 14.04zM86.11 108.24h-6.65a22.85 22.85 0 0017.32 13.34c0-.81.08-1.66.08-2.59a10.76 10.76 0 00-10.75-10.75zM88.45 129.8c2.7.11 4.83.19 6.21-1.13H78.31a12.41 12.41 0 00-5.1 1.09h12.9c.8-.02 1.59.01 2.34.04z"
     id="path176" />
  <path
     class="cls-1"
     d="M105.73 129.86a7.1 7.1 0 01-.94-1.21h-7.32a6.79 6.79 0 01-1.24 1.66c-1.59 1.52-3.61 1.81-5.8 1.81-.68 0-1.37 0-2.07-.05s-1.48-.06-2.25-.06H69.78a12.52 12.52 0 00-4 9.2c0 5.67.8 9.11 2.53 10.82s4.83 1.77 8.67 1.75h44.58c.94 0 1.86 0 2.74.08 3.15.12 5.64.22 7.25-1.33s2.58-5.36 2.58-11.31a12.52 12.52 0 00-4-9.2h-15.36c-3.66-.02-6.83.03-9.04-2.16zM68.76 101.4v1a19.54 19.54 0 006.24-1.31c0-.66-.09-1.32-.09-2a25.42 25.42 0 0111.75-21.42A19.4 19.4 0 0059.3 65.54a21.73 21.73 0 01-10.76 18.58 20 20 0 00.72 4.26h6.48a13 13 0 0113.02 13.02zM133.52 101.4v1c.4 0 .8.06 1.2.06a19.5 19.5 0 0017.88-11.77h-8.35a10.76 10.76 0 00-10.73 10.71z"
     id="path178" />
  <path
     class="cls-1"
     d="M66.47 102.35v-.95a10.76 10.76 0 00-10.73-10.75h-5.67a19.5 19.5 0 0016.4 11.7zM68.64 104.67c0 .45-.08.88-.13 1.29h7.33a23.43 23.43 0 01-.58-2.54 21.41 21.41 0 01-6.62 1.25z"
     id="path180" />
  <path
     class="cls-2"
     d="M163.08 45.9a19.47 19.47 0 11-6.62 37.75c0 .79-.1 1.58-.2 2.35a21.73 21.73 0 10-14.7-23.68 19.34 19.34 0 012.18.86 19.49 19.49 0 0119.34-17.28z"
     id="path182" />
  <path
     class="cls-2"
     d="M181.24 88.38h-25.45a22.22 22.22 0 01-.73 2.27h26.18A10.76 10.76 0 01192 101.4c0 5.09-.72 8.25-2.2 9.68s-3.51 1.24-6.2 1.13c-.76 0-1.55-.06-2.35-.06H164a12.28 12.28 0 011.12 2.27h16.16c.77 0 1.53 0 2.26.06s1.39.06 2.06.06c2.19 0 4.22-.3 5.8-1.82 2-1.93 2.91-5.42 2.91-11.32a13 13 0 00-13.07-13.02zM46.21 82.78A19.46 19.46 0 1157 64.2a23.06 23.06 0 012.21-1.14 21.75 21.75 0 10-12.88 22.19 21.72 21.72 0 01-.12-2.3zM18.76 112.15h-1.17c-3.29 0-5.88 0-7.42-1.49S8 106.25 8 101.4a10.76 10.76 0 0110.76-10.75h28.86a22.22 22.22 0 01-.73-2.27H18.76a13 13 0 00-13 13c0 5.57.88 8.92 2.84 10.87 2.21 2.2 5.37 2.17 9 2.16H37a13 13 0 011.12-2.27zM154.19 82.66a20 20 0 002.27 1v-.7a21.74 21.74 0 00-12.73-19.77 19.63 19.63 0 00-.13 2.18v.3a19.5 19.5 0 0110.59 16.99zM131.36 104.43c-.06-.73-.09-1.51-.1-2.34a19.48 19.48 0 01-5.59-1.92c0 .82-.11 1.63-.22 2.44a21.83 21.83 0 005.91 1.82zM134.73 63.49a19.47 19.47 0 016.63 1.18 20.31 20.31 0 01.2-2.35 21.71 21.71 0 00-27.88 15.2c.7.43 1.37.9 2 1.39a19.48 19.48 0 0119.05-15.42zM134.73 102.42c-.4 0-.8 0-1.2-.06 0 .82.05 1.6.11 2.3h1.09a21.76 21.76 0 0020.33-14h-2.45a19.5 19.5 0 01-17.88 11.76zM153.42 88.38h2.37a23.29 23.29 0 00.47-2.38 20.73 20.73 0 01-2.19-.86 20.43 20.43 0 01-.65 3.24z"
     id="path184" />
  <path
     class="cls-2"
     d="M143.63 65.66v-.3a19.63 19.63 0 01.13-2.18 19.34 19.34 0 00-2.18-.86 20.31 20.31 0 00-.2 2.35 18.33 18.33 0 012.25.99zM154.19 82.66v.29a19.81 19.81 0 01-.13 2.19 20.73 20.73 0 002.19.86c.1-.77.17-1.56.2-2.35a20 20 0 01-2.26-.99zM131.36 104.43a19.14 19.14 0 002.28.23c-.06-.7-.09-1.48-.11-2.3a18.76 18.76 0 01-2.27-.27c.01.83.04 1.61.1 2.34zM152.61 90.65h2.45a22.22 22.22 0 00.73-2.27h-2.37a20.43 20.43 0 01-.81 2.27zM124.75 106c-.22.78-.47 1.54-.76 2.28h8a18.56 18.56 0 01-.43-2.28zM163.65 119c0 5.08-.72 8.25-2.2 9.68s-3.51 1.24-6.21 1.13c-.75 0-1.54-.06-2.34-.06h-21.41a14.77 14.77 0 012.13 2.27h19.28c.77 0 1.52 0 2.25.06s1.39.05 2.07.05c2.19 0 4.21-.29 5.8-1.81 2-1.93 2.9-5.42 2.9-11.32a12.87 12.87 0 00-.84-4.57h-2.46a10.74 10.74 0 011.03 4.57zM152.9 106h-19.1a12.67 12.67 0 00.51 2.28h18.59a10.74 10.74 0 018.29 3.91H164a13 13 0 00-11.1-6.19z"
     id="path186" />
  <path
     class="cls-2"
     d="M131.94 108.24h2.37a12.67 12.67 0 01-.51-2.28h-2.29a18.56 18.56 0 00.43 2.28zM161.19 112.15a10.87 10.87 0 011.43 2.27h2.46a12.28 12.28 0 00-1.12-2.27zM59.3 65.54a19.4 19.4 0 0127.36 12.13c.66-.42 1.34-.81 2-1.17a21.73 21.73 0 00-29.48-13.44 22 22 0 01.13 2.3c0 .06-.01.12-.01.18zM66.36 104.63c.06-.71.09-1.47.11-2.28a19.5 19.5 0 01-16.4-11.7h-2.45a21.76 21.76 0 0018.74 13.98zM75.26 103.42c-.13-.77-.23-1.54-.29-2.33a19.54 19.54 0 01-6.23 1.29c0 .81 0 1.58-.1 2.29a21.41 21.41 0 006.62-1.25zM57 66.9c0-.51.07-1 .07-1.54s0-.77-.06-1.16a21.73 21.73 0 00-10.8 18.58 19.64 19.64 0 002.35-1.36A19.45 19.45 0 0157 66.9zM48.54 84.12a20 20 0 01-2.21 1.13 21.57 21.57 0 00.56 3.13h2.37a20 20 0 01-.72-4.26z"
     id="path188" />
  <path
     class="cls-2"
     d="M48.48 83c0-.52 0-1 .08-1.53a19.64 19.64 0 01-2.35 1.36V83a21.72 21.72 0 00.12 2.3 20 20 0 002.21-1.13c-.03-.44-.06-.82-.06-1.17zM57 65.36c0 .52 0 1-.07 1.54a18.77 18.77 0 012.34-1.36v-.18a22 22 0 00-.13-2.3A23.06 23.06 0 0057 64.2v1.16zM68.64 104.67c0-.71.08-1.48.1-2.29h-.8c-.49 0-1 0-1.47-.07 0 .81 0 1.57-.11 2.28.53 0 1 .06 1.58.06zM50.07 90.65a20.43 20.43 0 01-.81-2.27h-2.37a22.22 22.22 0 00.73 2.27zM49.13 108.24h16.64a17 17 0 00.45-2.28H49.13a13 13 0 00-11.06 6.19h2.78a10.7 10.7 0 018.28-3.91zM68.34 129.74H48c-3.29 0-5.88 0-7.42-1.49s-2.16-4.41-2.16-9.26a10.74 10.74 0 011-4.57H37a13.1 13.1 0 00-.84 4.57c0 5.57.87 8.92 2.83 10.87 2.21 2.19 5.38 2.17 9 2.15h18.22a14.77 14.77 0 012.13-2.27zM68.51 106a19.24 19.24 0 01-.39 2.28h8.47c-.28-.74-.54-1.5-.75-2.28z"
     id="path190" />
  <path
     class="cls-2"
     d="M66.22 106a17 17 0 01-.45 2.28h2.35a19.24 19.24 0 00.39-2.28zM40.85 112.15h-2.78a13 13 0 00-1.07 2.27h2.46a10.91 10.91 0 011.39-2.27zM123 98.47a20.14 20.14 0 002.64 1.7V99.1a25.4 25.4 0 00-10-20.19 18.87 18.87 0 00-.38 3.12A22.74 22.74 0 01123 98.47zM125.45 102.61a22.77 22.77 0 01-2.51-1.41 22 22 0 01-1 4.76h2.77a24.89 24.89 0 00.74-3.35zM75.84 106h2.76a21.74 21.74 0 01-.82-3.63 20.82 20.82 0 01-2.52 1.09 23.43 23.43 0 00.58 2.54zM100.29 124.5a24.33 24.33 0 003-.18c-.13-.79-.22-1.69-.28-2.64a21.87 21.87 0 01-2.7.17h-1.25c-.06 1-.14 1.84-.27 2.64.48-.01.99.01 1.5.01zM74.88 99.1c0 .67 0 1.33.09 2a19.82 19.82 0 002.59-1.23v-.76a22.74 22.74 0 019.7-18.62 20 20 0 00-.58-2.81 25.42 25.42 0 00-11.8 21.42zM100.29 76.35a22.66 22.66 0 0112.87 4 21.74 21.74 0 01.52-2.83 25.3 25.3 0 00-25-1 22.93 22.93 0 01.64 2.66 22.61 22.61 0 0110.97-2.83zM105.24 121.3a26.59 26.59 0 00.28 2.66A25.5 25.5 0 00124 108.24h-2.87a22.83 22.83 0 01-15.89 13.06zM79.46 108.24h-2.87a25.47 25.47 0 0019.91 16 26.47 26.47 0 00.28-2.64 22.85 22.85 0 01-17.32-13.36z"
     id="path192" />
  <path
     class="cls-2"
     d="M115.32 82a18.87 18.87 0 01.38-3.12c-.65-.49-1.32-1-2-1.39a21.74 21.74 0 00-.52 2.83 25 25 0 012.14 1.68zM125.67 100.17a20.14 20.14 0 01-2.64-1.7v.63a20.8 20.8 0 01-.1 2.1 22.77 22.77 0 002.51 1.41c.12-.81.2-1.61.23-2.44zM122 106a22.26 22.26 0 01-.86 2.28H124c.29-.74.54-1.5.76-2.28zM103 121.68c.06.95.15 1.85.28 2.64.76-.09 1.52-.2 2.25-.36a26.59 26.59 0 01-.28-2.66c-.75.16-1.5.29-2.25.38zM77.78 102.33a22.44 22.44 0 01-.22-2.47 19.82 19.82 0 01-2.56 1.23c.06.79.16 1.56.29 2.33a20.82 20.82 0 002.49-1.09zM87.24 80.48a22.67 22.67 0 012.11-1.32 22.93 22.93 0 00-.64-2.66c-.71.36-1.39.75-2 1.17a20 20 0 01.53 2.81zM99 121.81c-.76 0-1.52-.12-2.26-.23a26.47 26.47 0 01-.28 2.64c.74.11 1.5.19 2.27.23.17-.8.27-1.68.27-2.64zM78.6 106h-2.76c.21.78.47 1.54.75 2.28h2.87c-.32-.78-.61-1.54-.86-2.28zM106 126a5.84 5.84 0 001.31 2.26 6.25 6.25 0 00.5.4h13.69a12.41 12.41 0 015.1 1.09h4.87a15.11 15.11 0 00-10-3.75zM94.67 128.65A6.23 6.23 0 0096.1 126H78.31a15.11 15.11 0 00-10 3.75h4.87a12.41 12.41 0 015.1-1.09zM134.09 141.21c0 5.95-.84 9.65-2.58 11.31s-4.1 1.45-7.25 1.33c-.88 0-1.8-.08-2.74-.08H76.94c-3.84 0-6.87 0-8.67-1.75s-2.53-5.15-2.53-10.82a12.52 12.52 0 014-9.2h-3.53a15.13 15.13 0 00-3.13 9.2c0 6.51 1 10.43 3.31 12.71 2.59 2.56 6.29 2.54 10.57 2.52h44.56c.9 0 1.78 0 2.64.07s1.62.07 2.41.07c2.56 0 4.93-.35 6.78-2.13 2.35-2.25 3.4-6.34 3.4-13.23a15.13 15.13 0 00-3.13-9.2h-3.57a12.52 12.52 0 014.04 9.2zM98.47 126a11.28 11.28 0 01-1 2.66h7.32a9.87 9.87 0 01-1.14-2.66z"
     id="path194" />
  <path
     class="cls-2"
     d="M131.49 129.74h-4.87a12.41 12.41 0 013.43 2.27h3.57a14.77 14.77 0 00-2.13-2.27zM104.79 128.65h3a6.25 6.25 0 01-.5-.4A5.84 5.84 0 01106 126h-2.37a9.87 9.87 0 001.16 2.65zM96.1 126a6.23 6.23 0 01-1.43 2.66h2.8a11.28 11.28 0 001-2.66zM73.21 129.74h-4.87a14.77 14.77 0 00-2.13 2.26h3.57a12.56 12.56 0 013.43-2.26z"
     id="path196" />
  <g
     id="g206"
     transform="matrix(0.3,0,0,0.3,70.03498,6.5999375)">
    <path
       stroke-miterlimit="10"
       fill="#1a7d71"
       stroke="#264194"
       stroke-width="5.42"
       d="m 101.91,90.54 35.91,35.92"
       id="path30" />
    <path
       class="cls-2"
       d="m 118.26,73.21 -12,-12 a 2.19,2.19 0 0 0 -3.07,0 l -1.35,1.35 a 2.17,2.17 0 0 0 0,3.07 l 0.53,0.54 -3.34,3.34 -1,-1 a 1.56,1.56 0 0 0 -2.21,0 1.58,1.58 0 0 0 0,2.21 l 1,1 -13.3,13.38 -1,-1 a 1.58,1.58 0 0 0 -2.21,0 1.56,1.56 0 0 0 0,2.21 l 1,1 -3.31,3.34 -0.53,-0.54 a 2.19,2.19 0 0 0 -3.07,0 L 73,91.47 a 2.15,2.15 0 0 0 0,3.06 l 12,12 a 2.19,2.19 0 0 0 3.07,0 l 1.35,-1.36 a 2.17,2.17 0 0 0 0,-3.06 l -0.54,-0.54 3.32,-3.37 1,1 A 1.57,1.57 0 1 0 95.38,97 l -1,-1 13.34,-13.33 1,1 a 1.562706,1.562706 0 0 0 2.21,-2.21 l -1,-1 3.35,-3.34 0.53,0.54 a 2.19,2.19 0 0 0 3.07,0 l 1.35,-1.36 a 2.17,2.17 0 0 0 0.03,-3.09 z"
       id="path32" />
    <rect
       class="cls-2"
       x="67.330002"
       y="128.53999"
       width="30.32"
       height="4.8699999"
       rx="2.4400001"
       ry="2.4400001"
       id="rect34" />
    <rect
       class="cls-2"
       x="62.18"
       y="134.50999"
       width="40.849998"
       height="4.8699999"
       rx="2.4400001"
       ry="2.4400001"
       id="rect36" />
    <circle
       cx="100"
       cy="100"
       r="70"
       fill="none"
       stroke="#23398e"
       stroke-width="4"
       stroke-dasharray="10, 10"
       stroke-miterlimit="10"
       id="circle38" />
  </g>
</svg>
