<svg id="Layer_1" data-name="Layer 1" xmlns="http://www.w3.org/2000/svg" viewBox="0 0 200 200"><defs><style>.cls-2{fill:none;stroke:#1a7d71;stroke-miterlimit:10;stroke-width:3px}</style></defs><path d="M100.12 137.74a3.53 3.53 0 11-3.53 3.53 3.53 3.53 0 013.53-3.53z" fill="#1a7d71"/><path class="cls-2" d="M128.11 133.78v12.07a2.75 2.75 0 01-2.74 2.76H74.46a2.76 2.76 0 01-2.75-2.76V54.14a2.76 2.76 0 012.75-2.75h50.91a2.75 2.75 0 012.74 2.75v79.64zM72.03 60.84h56.25M72.03 133.78h56.25"/><path d="M168.61 116.72V41.88a13.42 13.42 0 00-13.38-13.38H44.77a13.42 13.42 0 00-13.38 13.38v116.24a13.42 13.42 0 0013.38 13.38h110.46a13.42 13.42 0 0013.38-13.38v-18.6h-9.86v13.8H142.8v-23.81h4v-4.42h8v4.33h4v5.32" stroke-width="4" fill="none" stroke="#1a7d71" stroke-miterlimit="10"/></svg>