<svg id="Layer_1" data-name="Layer 1" xmlns="http://www.w3.org/2000/svg" viewBox="0 0 200 200"><defs><style>.cls-1,.cls-2,.cls-4{fill:none}.cls-2,.cls-4{stroke:#eb5b28;stroke-miterlimit:10}.cls-2{stroke-width:3.32px}.cls-4{stroke-width:1.6px}</style></defs><path class="cls-1" d="M36.92 139.54a54.79 54.79 0 01-.12-79.08"/><path class="cls-2" d="M36.8 60.46a54.79 54.79 0 00.12 79.08M28.92 100A46 46 0 0143 66.8M43 66.8a46.15 46.15 0 00.08 66.45M49.25 127a37.47 37.47 0 010-53.83M49.21 73.13a37.47 37.47 0 000 53.83M55.41 120.67a28.84 28.84 0 010-41.21M55.41 79.46a28.84 28.84 0 000 41.21"/><path class="cls-1" d="M163.08 60.46a54.79 54.79 0 01.12 79.08"/><path class="cls-2" d="M163.2 139.54a54.79 54.79 0 00-.12-79.08M171.08 100A46 46 0 01157 133.2M157 133.2a46.15 46.15 0 00-.08-66.45M150.75 73a37.47 37.47 0 010 53.83M150.79 126.87a37.47 37.47 0 000-53.83M144.59 79.33a28.84 28.84 0 010 41.21M144.59 120.54a28.84 28.84 0 000-41.21"/><path d="M100.09 126.69a2.49 2.49 0 11-2.5 2.48 2.47 2.47 0 012.5-2.48z" fill="#eb5b28"/><path class="cls-4" d="M119.88 123.88v8.54a2 2 0 01-1.94 1.94h-36a2 2 0 01-1.94-1.94V67.58a2 2 0 011.94-1.94h36a2 2 0 011.94 1.94v56.3zM80.23 72.31H120M80.23 123.88H120"/></svg>