<svg id="Layer_1" data-name="Layer 1" xmlns="http://www.w3.org/2000/svg" viewBox="0 0 200 200"><defs><style>.cls-1,.cls-3{fill:none;stroke:#1a7d71;stroke-miterlimit:10}.cls-1{stroke-width:4px}.cls-2{fill:#1a7d71}.cls-3{stroke-width:2.52px}</style></defs><path class="cls-1" d="M58.78 142.74h7.59M58.78 147.89h7.59M43.78 140.5a11.57 11.57 0 017.87-2.82h7.13v15.93h-7.13"/><path class="cls-1" d="M31.94 120.79V41.88A13.42 13.42 0 0145.32 28.5h109.36a13.42 13.42 0 0113.38 13.38v116.24a13.42 13.42 0 01-13.38 13.38H45.32a13.42 13.42 0 01-13.38-13.38v-12.29h8.29s2.91 7.82 11.42 7.82"/><path class="cls-2" d="M53.73 84.81a2.34 2.34 0 102.34 2.33 2.33 2.33 0 00-2.34-2.33zM53.73 94.92a2.34 2.34 0 102.34 2.34 2.34 2.34 0 00-2.34-2.34z"/><path class="cls-3" d="M146.74 78.19H53.26A8.28 8.28 0 0045 86.45v21a8.29 8.29 0 008.26 8.26h8.44v.07a5.2 5.2 0 1010.4 0v-.07h50.42l5.89.07a5.2 5.2 0 1010.4 0v-.07h7.93a8.29 8.29 0 008.26-8.26v-21a8.28 8.28 0 00-8.26-8.26z"/><path stroke-width="2.19" stroke="#1a7d71" stroke-miterlimit="10" fill="none" d="M80.15 47h41.38v31.19H80.15z"/><path d="M83.46 89.48h34.77A7.81 7.81 0 01126 97.3v18.43h0-50.36 0V97.3a7.81 7.81 0 017.82-7.82z" stroke-width="2.6" stroke="#1a7d71" stroke-miterlimit="10" fill="none"/><path stroke-width="2.52" fill="#1a7d71" stroke="#1a7d71" stroke-miterlimit="10" d="M75.64 97.26h50.4"/><path class="cls-3" d="M80.15 109.72h41.38"/></svg>