<svg data-name="Layer 1" xmlns="http://www.w3.org/2000/svg" viewBox="0 0 200 200"><path d="M100 62.28a20.24 20.24 0 0110.79 37.35l4 35.3a2.5 2.5 0 01-2.48 2.79H87.69a2.5 2.5 0 01-2.48-2.79l4-35.3a20.24 20.24 0 019.5-37.31H100m0-3h-1.48A23.23 23.23 0 0086 101.08l-3.8 33.51a5.5 5.5 0 005.46 6.13h24.62a5.5 5.5 0 005.46-6.13L114 101.08a23.24 23.24 0 00-14-41.8z" fill="#23398e"/><circle cx="100" cy="100" r="70" fill="none" stroke="#23398e" stroke-miterlimit="10" stroke-width="4" stroke-dasharray="10 10"/></svg>