<svg id="Layer_1" data-name="Layer 1" xmlns="http://www.w3.org/2000/svg" viewBox="0 0 200 200"><defs><style>.cls-1{fill:#1c1f3d}.cls-2{fill:none;stroke:#1c1f3d;stroke-linejoin:round;stroke-width:4px}</style></defs><path class="cls-1" d="M63.68 113.84h-3.57a.81.81 0 01-.91-.91V87.07a.81.81 0 01.91-.91h3.23a1.21 1.21 0 011.2.61l8.69 16.31h.18v-16a.8.8 0 01.9-.91h3.57a.81.81 0 01.91.91v25.86a.81.81 0 01-.91.91h-3.14a1.45 1.45 0 01-1.38-.87l-8.6-16h-.18v16a.8.8 0 01-.9.86zM103.07 113.84h-4.69a7.21 7.21 0 01-5.25-1.84 6.94 6.94 0 01-1.85-5.21V93.18A6.94 6.94 0 0193.13 88a7.21 7.21 0 015.25-1.81h4.69A7.17 7.17 0 01108.3 88a6.92 6.92 0 011.87 5.19v2a.84.84 0 01-1 1h-3.61a.83.83 0 01-.91-1v-1.75a2.7 2.7 0 00-.58-2 2.67 2.67 0 00-2-.58h-2.83a2.64 2.64 0 00-1.92.58 2.75 2.75 0 00-.58 2v13.12a2.75 2.75 0 00.58 2 2.64 2.64 0 001.92.58h2.93a2.67 2.67 0 002-.58 2.7 2.7 0 00.58-2v-1.76a.83.83 0 01.91-1h3.61a.84.84 0 011 1v2a6.92 6.92 0 01-1.97 5.2 7.17 7.17 0 01-5.23 1.84zM126.9 113.84h-3.66a.81.81 0 01-.91-.91V87.07a.81.81 0 01.91-.91h10.5A7.1 7.1 0 01139 88a7 7 0 011.85 5.19v4.13a7 7 0 01-1.85 5.18 7.1 7.1 0 01-5.21 1.82h-5.42c-.35 0-.52.16-.52.48v8.13a.8.8 0 01-.95.91zm1.37-14.29h4.57a2.65 2.65 0 001.93-.58 2.74 2.74 0 00.56-1.92v-3.61a2.8 2.8 0 00-.56-2 2.61 2.61 0 00-1.93-.58h-4.57a.42.42 0 00-.47.47v7.7a.42.42 0 00.47.52z"/><path class="cls-2" d="M170.73 171.57H25V50.48"/><path class="cls-1" d="M41.95 70.4L25 53.44 8.05 70.4V56.01L25 39.05l16.95 16.96V70.4z"/><path class="cls-2" d="M29.27 28.43H175v121.09"/><path class="cls-1" d="M158.05 129.6L175 146.56l16.95-16.96v14.39L175 160.94l-16.95-16.95V129.6z"/></svg>