<svg id="Layer_1" data-name="Layer 1" xmlns="http://www.w3.org/2000/svg" viewBox="0 0 200 200"><defs><style>.cls-1{fill:none;stroke:#eb5b28;stroke-miterlimit:10;stroke-width:4px}.cls-2{fill:#eb5b28}</style></defs><path class="cls-1" d="M165.57 100H180"/><path class="cls-2" d="M159.05 108.52a8.52 8.52 0 10-8.52-8.52 8.53 8.53 0 008.52 8.52zm0-15a6.52 6.52 0 11-6.52 6.52 6.52 6.52 0 016.52-6.52z"/><path class="cls-1" d="M34.43 100H20"/><path class="cls-2" d="M41 91.48a8.52 8.52 0 108.47 8.52A8.53 8.53 0 0041 91.48zm0 15a6.52 6.52 0 116.47-6.48 6.52 6.52 0 01-6.47 6.52z"/><path d="M96.35 99.53l-5.6-7c-3-3.75 1.39-12.23 1.39-12.23a2.07 2.07 0 00.33-2.9l-9.29-11.7c-.75-.93-1.91-.68-3-.24-5 2-8.82 3.82-9.81 7.48C68.7 79 73.25 88.62 77.11 95.3a115.68 115.68 0 008.78 12.6h0l1.61 2 1.61 2h0a115.33 115.33 0 0010.32 11.38c5.64 5.26 14 11.84 20.27 11.6 3.79-.15 6.4-3.47 9.49-7.89.68-1 1.19-2.06.44-3l-9.29-11.66a2.07 2.07 0 00-2.9-.33s-9.25 2.36-12.23-1.39l-5.59-7z" stroke-width="2" fill="none" stroke="#eb5b28" stroke-miterlimit="10"/></svg>