<?xml version="1.0" encoding="UTF-8" standalone="no"?>
<svg
   id="Layer_1"
   data-name="Layer 1"
   viewBox="0 0 200 200"
   version="1.1"
   sodipodi:docname="remoteterminal.svg"
   inkscape:version="1.1.2 (b8e25be833, 2022-02-05)"
   xmlns:inkscape="http://www.inkscape.org/namespaces/inkscape"
   xmlns:sodipodi="http://sodipodi.sourceforge.net/DTD/sodipodi-0.dtd"
   xmlns="http://www.w3.org/2000/svg"
   xmlns:svg="http://www.w3.org/2000/svg">
  <sodipodi:namedview
     id="namedview37"
     pagecolor="#ffffff"
     bordercolor="#666666"
     borderopacity="1.0"
     inkscape:pageshadow="2"
     inkscape:pageopacity="0.0"
     inkscape:pagecheckerboard="0"
     showgrid="false"
     inkscape:zoom="5.8"
     inkscape:cx="66.206897"
     inkscape:cy="100"
     inkscape:window-width="2560"
     inkscape:window-height="1369"
     inkscape:window-x="-8"
     inkscape:window-y="-8"
     inkscape:window-maximized="1"
     inkscape:current-layer="Layer_1" />
  <defs
     id="defs26">
    <style
       id="style24">.cls-1{fill:none;stroke:#1c1f3d;stroke-linejoin:round;stroke-width:4px}.cls-2{fill:#1c1f3d}</style>
  </defs>
  <path
     class="cls-1"
     d="M170.73 172.47H25V51.38"
     id="path28" />
  <path
     class="cls-2"
     d="M41.95 71.3L25 54.33 8.05 71.3V56.9L25 39.95 41.95 56.9v14.4z"
     id="path30" />
  <path
     class="cls-1"
     d="M29.27 29.32H175v121.09"
     id="path32" />
  <path
     class="cls-2"
     d="M158.05 130.49L175 147.46l16.95-16.97v14.4L175 161.84l-16.95-16.95v-14.4z"
     id="path34" />
  <g
     id="g14667"
     transform="translate(0,17.68149)">
    <path
       class="cls-2"
       d="M 148.76068,53.25056 H 51.250596 c -0.405105,0 -0.733507,0.319341 -0.733508,0.713267 v 58.499363 c -1e-6,0.39393 0.328402,0.71327 0.733508,0.71327 h 97.510084 c 0.40056,-0.006 0.72193,-0.32372 0.72188,-0.71327 V 53.986471 c 0.0131,-0.398335 -0.31208,-0.729795 -0.72188,-0.735911 z"
       id="path184"
       style="fill:none;stroke:#1c1f3d;stroke-width:2.12;stroke-miterlimit:10;stroke-dasharray:none;stroke-opacity:1"
       sodipodi:nodetypes="ccccccccc" />
    <path
       stroke-width="1.41"
       fill="none"
       stroke="#1a7d71"
       stroke-miterlimit="10"
       d="M 55.174286,57.790571 H 144.70892 V 103.19069 H 55.174286 Z"
       id="path186"
       style="stroke:#1c1f3d;stroke-opacity:1" />
    <path
       style="fill:none;stroke:#000000;stroke-width:1.5;stroke-linecap:round;stroke-linejoin:miter;stroke-miterlimit:4;stroke-dasharray:none;stroke-opacity:1"
       d="m 60.146074,73.295645 7.238,-5.58701"
       id="path6047" />
    <path
       style="fill:none;stroke:#000000;stroke-width:1.5;stroke-linecap:round;stroke-linejoin:miter;stroke-miterlimit:4;stroke-dasharray:none;stroke-opacity:1"
       d="m 60.658931,62.413795 6.725143,5.29484"
       id="path6049" />
    <path
       style="fill:none;stroke:#000000;stroke-width:1.50001;stroke-linecap:round;stroke-linejoin:miter;stroke-miterlimit:4;stroke-dasharray:none;stroke-opacity:1"
       d="m 69.051222,73.167355 6.725146,-1e-5"
       id="path6049-9" />
  </g>
</svg>
