<?xml version="1.0" encoding="UTF-8" standalone="no"?>
<svg
   id="Layer_1"
   data-name="Layer 1"
   viewBox="0 0 200 200"
   version="1.1"
   sodipodi:docname="remotedesktop.svg"
   inkscape:version="1.1.2 (b8e25be833, 2022-02-05)"
   xmlns:inkscape="http://www.inkscape.org/namespaces/inkscape"
   xmlns:sodipodi="http://sodipodi.sourceforge.net/DTD/sodipodi-0.dtd"
   xmlns="http://www.w3.org/2000/svg"
   xmlns:svg="http://www.w3.org/2000/svg">
  <sodipodi:namedview
     id="namedview37"
     pagecolor="#ffffff"
     bordercolor="#666666"
     borderopacity="1.0"
     inkscape:pageshadow="2"
     inkscape:pageopacity="0.0"
     inkscape:pagecheckerboard="0"
     showgrid="false"
     inkscape:zoom="5.8"
     inkscape:cx="100.08621"
     inkscape:cy="99.913793"
     inkscape:window-width="1278"
     inkscape:window-height="1360"
     inkscape:window-x="1273"
     inkscape:window-y="0"
     inkscape:window-maximized="0"
     inkscape:current-layer="Layer_1" />
  <defs
     id="defs26">
    <style
       id="style24">.cls-1{fill:none;stroke:#1c1f3d;stroke-linejoin:round;stroke-width:4px}.cls-2{fill:#1c1f3d}</style>
  </defs>
  <path
     class="cls-1"
     d="M170.73 172.47H25V51.38"
     id="path28" />
  <path
     class="cls-2"
     d="M41.95 71.3L25 54.33 8.05 71.3V56.9L25 39.95 41.95 56.9v14.4z"
     id="path30" />
  <path
     class="cls-1"
     d="M29.27 29.32H175v121.09"
     id="path32" />
  <path
     class="cls-2"
     d="M158.05 130.49L175 147.46l16.95-16.97v14.4L175 161.84l-16.95-16.95v-14.4z"
     id="path34" />
  <g
     id="g3736"
     transform="translate(0,6.9998705)">
    <path
       class="cls-2"
       d="M 143.76584,123.41958 H 56.86252 a 4.9482733,2.7144866 0 0 0 -4.93663,2.7017 v 12.71019 a 4.9599163,2.7208736 0 0 0 4.93663,2.7081 h 86.9266 a 4.9482733,2.7144866 0 0 0 4.92499,-2.7081 v -12.71019 a 4.9366303,2.7080995 0 0 0 -4.94827,-2.7017 z"
       id="path180"
       style="fill:none;stroke:#1c1f3d;stroke-width:2.12px;stroke-miterlimit:10;stroke-opacity:1" />
    <path
       class="cls-2"
       d="M 148.76068,46.250689 H 51.250596 a 0.73350875,0.71326874 0 0 0 -0.733508,0.713268 v 58.499363 a 0.73350875,0.71326874 0 0 0 0.733508,0.71327 h 39.935477 v 7.3478 c 0,0 0.174645,3.7022 -5.285921,3.7022 -5.460565,0 -6.392004,5.66086 -6.392004,5.66086 h 43.870812 c 0,0 -0.94308,-5.66086 -6.40365,-5.66086 -5.46056,0 -5.27427,-3.7022 -5.27427,-3.7022 v -7.3478 h 37.05964 a 0.73350875,0.71326874 0 0 0 0.72188,-0.71327 V 46.986601 a 0.73350875,0.71326874 0 0 0 -0.72188,-0.735912 z"
       id="path184"
       style="fill:none;stroke:#1c1f3d;stroke-width:2.12;stroke-miterlimit:10;stroke-dasharray:none;stroke-opacity:1" />
    <path
       stroke-width="1.41"
       fill="none"
       stroke="#1a7d71"
       stroke-miterlimit="10"
       d="M 55.174286,50.790701 H 144.70892 V 96.190822 H 55.174286 Z"
       id="path186"
       style="stroke:#1c1f3d;stroke-opacity:1" />
  </g>
  <circle
     style="fill:#ffffff;stroke:#1c1f3d;stroke-width:1.5;stroke-linecap:round;stroke-linejoin:bevel;stroke-miterlimit:4;stroke-dasharray:none"
     id="path1225"
     cx="100"
     cy="78.275864"
     r="12.475" />
  <g
     id="g1312"
     transform="matrix(0.26972973,0,0,0.26972973,78.556486,52.023719)"
     style="stroke-width:3.70741">
    <path
       class="cls-2"
       d="m 46.118792,125.15492 19.31509,-22.05147 -19.31509,-22.051475 h 16.3913 l 19.30215,22.051475 -19.30215,22.05147 z"
       id="path14148-7"
       style="fill:#1c1f3d;stroke-width:5.12654" />
    <path
       class="cls-2"
       d="M 112.88121,69.500252 93.566118,91.55172 112.88121,113.6032 H 96.48991 L 77.187758,91.55172 96.48991,69.500252 Z"
       id="path14148-7-6"
       style="fill:#1c1f3d;stroke-width:5.12654" />
  </g>
</svg>
