<svg id="Layer_1" data-name="Layer 1" xmlns="http://www.w3.org/2000/svg" viewBox="0 0 200 200"><defs><style>.cls-1{fill:none;stroke:#1a7d71;stroke-miterlimit:10;stroke-width:4px}</style></defs><path class="cls-1" d="M58.78 142.74h7.59M58.78 147.89h7.59M43.78 140.5a11.57 11.57 0 017.87-2.82h7.13v15.93h-7.13"/><path class="cls-1" d="M31.94 120.79V41.88A13.42 13.42 0 0145.32 28.5h109.36a13.42 13.42 0 0113.38 13.38v116.24a13.42 13.42 0 01-13.38 13.38H45.32a13.42 13.42 0 01-13.38-13.38v-12.29h8.29s2.91 7.82 11.42 7.82"/><path d="M146.74 78.59H53.26A8.29 8.29 0 0045 86.85v21a8.28 8.28 0 008.26 8.26h8.44v.07a5.2 5.2 0 1010.4 0v-.07h50.42v.07a5.21 5.21 0 1010.41 0v-.07h13.81a8.28 8.28 0 008.26-8.26v-21a8.29 8.29 0 00-8.26-8.26zm-29 8.9a3.13 3.13 0 113.12 3.12 3.13 3.13 0 01-3.09-3.12zm12.33 3.12a3.13 3.13 0 113.12-3.12 3.12 3.12 0 01-3.09 3.12zm9.59 0a3.13 3.13 0 113.12-3.12 3.12 3.12 0 01-3.09 3.12z" stroke-width="2.52" fill="none" stroke="#1a7d71" stroke-miterlimit="10"/></svg>