<svg id="Layer_1" data-name="Layer 1" xmlns="http://www.w3.org/2000/svg" viewBox="0 0 200 200"><defs><style>.cls-3{fill:none;stroke:#c9326d;stroke-width:4px;stroke-miterlimit:10}</style></defs><path stroke-linejoin="round" fill="none" stroke="#c9326d" stroke-width="4" d="M176.01 171.5H23.99V54.92l15-26.42h44.95l15.13 26.42h76.94V171.5z"/><path d="M96.1 119.53V110a1.14 1.14 0 011.29-1.28h5.82a1.14 1.14 0 011.29 1.28v9.5c0 1.63-.1 3.46-.28 5.48s-.32 3.52-.4 4.5-.16 1.78-.24 2.39-.13.94-.13 1a1.35 1.35 0 01-1.41 1.29h-3.49a1.36 1.36 0 01-1.41-1.29s0-.37-.12-1-.17-1.41-.27-2.39-.2-2-.28-3.18c-.24-3.3-.37-5.59-.37-6.77zm8.21 19.78v7.54c0 .85-.41 1.28-1.22 1.28H97.7q-1.23 0-1.23-1.35v-7.41a1.08 1.08 0 011.23-1.22h5.39c.81 0 1.22.39 1.22 1.16z" fill="#c9326d"/><path class="cls-3" d="M72.6 103.19h55.16v50.7H72.6zM75.38 103.12V81a7.53 7.53 0 017.51-7.51h35a7.53 7.53 0 017.53 7.51v11.85"/></svg>