<svg id="Layer_1" data-name="Layer 1" xmlns="http://www.w3.org/2000/svg" viewBox="0 0 200 200"><defs><style>.cls-1,.cls-3{fill:none;stroke:#1a7d71;stroke-miterlimit:10}.cls-1{stroke-width:4px}.cls-2{fill:#1a7d71}.cls-3{stroke-width:.68px}</style></defs><path class="cls-1" d="M58.78 142.74h7.59M58.78 147.89h7.59M43.78 140.5a11.57 11.57 0 017.87-2.82h7.13v15.93h-7.13"/><path class="cls-1" d="M31.94 120.79V41.88A13.42 13.42 0 0145.32 28.5h109.36a13.42 13.42 0 0113.38 13.38v116.24a13.42 13.42 0 01-13.38 13.38H45.32a13.42 13.42 0 01-13.38-13.38v-12.29h8.29s2.91 7.82 11.42 7.82"/><path class="cls-2" d="M137.85 42.09a4.17 4.17 0 014.15 4.16v106.69a4.16 4.16 0 01-4.15 4.15H96.46a4.16 4.16 0 01-4.15-4.15V46.25a4.17 4.17 0 014.15-4.16h41.39m0-2.18H96.46a6.35 6.35 0 00-6.33 6.34v106.69a6.35 6.35 0 006.33 6.34h41.39a6.35 6.35 0 006.33-6.34V46.25a6.35 6.35 0 00-6.33-6.34z"/><path class="cls-2" d="M137.58 48.1a.88.88 0 01.89.88v6.91a.88.88 0 01-.89.88H96.75a.88.88 0 01-.89-.88V49a.88.88 0 01.89-.88h40.83m0-2.1H96.75a3 3 0 00-3 3v6.91a3 3 0 003 3h40.83a3 3 0 003-3V49a3 3 0 00-3-3z"/><path class="cls-2" d="M98.31 50.1h4.58v4.58h-4.58zM104.03 50.1h4.58v4.58h-4.58zM109.64 50.1h4.58v4.58h-4.58z"/><circle class="cls-2" cx="117.19" cy="50.01" r=".51"/><circle class="cls-2" cx="117.19" cy="51.79" r=".51"/><circle class="cls-2" cx="117.15" cy="53.57" r=".51"/><circle class="cls-2" cx="117.19" cy="55.35" r=".51"/><circle class="cls-2" cx="119.02" cy="50.01" r=".51"/><circle class="cls-2" cx="119.02" cy="51.79" r=".51"/><circle class="cls-2" cx="118.98" cy="53.57" r=".51"/><circle class="cls-2" cx="119.02" cy="55.35" r=".51"/><path class="cls-3" d="M121.96 50.01h14.1M121.96 51.79h14.1M121.96 53.57h14.1M121.96 55.35h14.1"/><path class="cls-2" d="M137.58 63.23a.89.89 0 01.89.89V71a.89.89 0 01-.89.88H96.75a.89.89 0 01-.89-.88v-6.88a.89.89 0 01.89-.89h40.83m0-2.1H96.75a3 3 0 00-3 3V71a3 3 0 003 3h40.83a3 3 0 003-3v-6.88a3 3 0 00-3-3z"/><path class="cls-2" d="M98.31 65.23h4.58v4.58h-4.58zM104.03 65.23h4.58v4.58h-4.58zM109.64 65.23h4.58v4.58h-4.58z"/><circle class="cls-2" cx="117.19" cy="65.14" r=".51"/><circle class="cls-2" cx="117.19" cy="66.93" r=".51"/><circle class="cls-2" cx="117.15" cy="68.71" r=".51"/><circle class="cls-2" cx="117.19" cy="70.49" r=".51"/><circle class="cls-2" cx="119.02" cy="65.14" r=".51"/><circle class="cls-2" cx="119.02" cy="66.93" r=".51"/><circle class="cls-2" cx="118.98" cy="68.71" r=".51"/><circle class="cls-2" cx="119.02" cy="70.49" r=".51"/><path class="cls-3" d="M121.96 65.14h14.1M121.96 66.93h14.1M121.96 68.71h14.1M121.96 70.49h14.1"/><path class="cls-2" d="M137.58 78.37a.88.88 0 01.89.88v6.91a.88.88 0 01-.89.88H96.75a.88.88 0 01-.89-.88v-6.91a.88.88 0 01.89-.88h40.83m0-2.1H96.75a3 3 0 00-3 3v6.91a3 3 0 003 3h40.83a3 3 0 003-3v-6.93a3 3 0 00-3-3z"/><path class="cls-2" d="M98.31 80.37h4.58v4.58h-4.58zM104.03 80.37h4.58v4.58h-4.58zM109.64 80.37h4.58v4.58h-4.58z"/><circle class="cls-2" cx="117.19" cy="80.28" r=".51"/><circle class="cls-2" cx="117.19" cy="82.06" r=".51"/><circle class="cls-2" cx="117.15" cy="83.84" r=".51"/><circle class="cls-2" cx="117.19" cy="85.62" r=".51"/><circle class="cls-2" cx="119.02" cy="80.28" r=".51"/><circle class="cls-2" cx="119.02" cy="82.06" r=".51"/><circle class="cls-2" cx="118.98" cy="83.84" r=".51"/><circle class="cls-2" cx="119.02" cy="85.62" r=".51"/><path class="cls-3" d="M121.96 80.28h14.1M121.96 82.06h14.1M121.96 83.84h14.1M121.96 85.62h14.1"/><path class="cls-2" d="M137.58 93.5a.89.89 0 01.89.89v6.9a.89.89 0 01-.89.89H96.75a.89.89 0 01-.89-.89v-6.9a.89.89 0 01.89-.89h40.83m0-2.1H96.75a3 3 0 00-3 3v6.9a3 3 0 003 3h40.83a3 3 0 003-3v-6.9a3 3 0 00-3-3z"/><path class="cls-2" d="M98.31 95.5h4.58v4.58h-4.58zM104.03 95.5h4.58v4.58h-4.58zM109.64 95.5h4.58v4.58h-4.58z"/><circle class="cls-2" cx="117.19" cy="95.41" r=".51"/><circle class="cls-2" cx="117.19" cy="97.19" r=".51"/><circle class="cls-2" cx="117.15" cy="98.97" r=".51"/><circle class="cls-2" cx="117.19" cy="100.75" r=".51"/><circle class="cls-2" cx="119.02" cy="95.41" r=".51"/><circle class="cls-2" cx="119.02" cy="97.19" r=".51"/><circle class="cls-2" cx="118.98" cy="98.97" r=".51"/><circle class="cls-2" cx="119.02" cy="100.75" r=".51"/><path class="cls-3" d="M121.96 95.41h14.1M121.96 97.19h14.1M121.96 98.97h14.1M121.96 100.75h14.1"/><path class="cls-2" d="M137.58 108.64a.88.88 0 01.89.88v6.91a.88.88 0 01-.89.88H96.75a.88.88 0 01-.89-.88v-6.91a.88.88 0 01.89-.88h40.83m0-2.1H96.75a3 3 0 00-3 3v6.91a3 3 0 003 3h40.83a3 3 0 003-3v-6.91a3 3 0 00-3-3z"/><path class="cls-2" d="M98.31 110.63h4.58v4.58h-4.58zM104.03 110.63h4.58v4.58h-4.58zM109.64 110.63h4.58v4.58h-4.58z"/><circle class="cls-2" cx="117.19" cy="110.55" r=".51"/><circle class="cls-2" cx="117.19" cy="112.33" r=".51"/><circle class="cls-2" cx="117.15" cy="114.11" r=".51"/><circle class="cls-2" cx="117.19" cy="115.89" r=".51"/><circle class="cls-2" cx="119.02" cy="110.55" r=".51"/><circle class="cls-2" cx="119.02" cy="112.33" r=".51"/><circle class="cls-2" cx="118.98" cy="114.11" r=".51"/><circle class="cls-2" cx="119.02" cy="115.89" r=".51"/><path class="cls-3" d="M121.96 110.55h14.1M121.96 112.33h14.1M121.96 114.11h14.1M121.96 115.89h14.1"/><path class="cls-2" d="M137.58 123.77a.89.89 0 01.89.88v6.91a.89.89 0 01-.89.89H96.75a.89.89 0 01-.89-.89v-6.91a.89.89 0 01.89-.88h40.83m0-2.1H96.75a3 3 0 00-3 3v6.91a3 3 0 003 3h40.83a3 3 0 003-3v-6.91a3 3 0 00-3-3z"/><path class="cls-2" d="M98.31 125.77h4.58v4.58h-4.58zM104.03 125.77h4.58v4.58h-4.58zM109.64 125.77h4.58v4.58h-4.58z"/><circle class="cls-2" cx="117.19" cy="125.68" r=".51"/><circle class="cls-2" cx="117.19" cy="127.46" r=".51"/><circle class="cls-2" cx="117.15" cy="129.24" r=".51"/><circle class="cls-2" cx="117.19" cy="131.02" r=".51"/><circle class="cls-2" cx="119.02" cy="125.68" r=".51"/><circle class="cls-2" cx="119.02" cy="127.46" r=".51"/><circle class="cls-2" cx="118.98" cy="129.24" r=".51"/><circle class="cls-2" cx="119.02" cy="131.02" r=".51"/><path class="cls-3" d="M121.96 125.68h14.1M121.96 127.46h14.1M121.96 129.24h14.1M121.96 131.02h14.1"/></svg>