<svg id="Layer_1" data-name="Layer 1" xmlns="http://www.w3.org/2000/svg" viewBox="0 0 200 200"><defs><style>.cls-2{fill:#264194}</style></defs><circle cx="100" cy="100" r="70" fill="none" stroke="#23398e" stroke-miterlimit="10" stroke-width="4" stroke-dasharray="10 10"/><path class="cls-2" d="M131.28 91.3l-8.78-25H77.17l-8.35 25c-6.83 1.18-12.08 7.47-12.08 15V119h4.7v11.29a3.51 3.51 0 003.51 3.5h5.67c1.94 0 4.14-1.57 4.14-3.5V119h49.53v11.29a3.51 3.51 0 003.51 3.5h7a3.54 3.54 0 003.55-3.5V119h4.95v-12.72c-.04-7.49-5.25-13.76-12.02-14.98zM70 105.78a3.47 3.47 0 113.47-3.47 3.46 3.46 0 01-3.47 3.47zm39.82 9.2a1 1 0 01-1 1H91.28a1 1 0 01-1-1v-3a1 1 0 011-1h17.44a1 1 0 011 1zm15-23.74a2.62 2.62 0 01-2.17 1.13H77.4a2.64 2.64 0 01-2.48-3.55L81 72.13a2.66 2.66 0 012.48-1.73h32.91a2.65 2.65 0 012.47 1.73L125 88.82a2.61 2.61 0 01-.28 2.42zm6.08 14.54a3.47 3.47 0 113.46-3.47 3.47 3.47 0 01-3.56 3.47z"/><path class="cls-2" d="M118.25 72.37a2 2 0 00-1.82-1.27H83.52a2 2 0 00-1.82 1.27l-6.12 16.69a1.94 1.94 0 001.82 2.61h45.15a1.94 1.94 0 001.82-2.61z"/><rect class="cls-2" x="59.24" y="84.61" width="10.97" height="5.02" rx="2.33" ry="2.33"/><rect class="cls-2" x="129.47" y="84.61" width="10.97" height="5.02" rx="2.33" ry="2.33"/></svg>