<svg data-name="Layer 1" xmlns="http://www.w3.org/2000/svg" viewBox="0 0 200 200"><path d="M119 47.27a3.82 3.82 0 013.81 3.81v97.84a3.82 3.82 0 01-3.81 3.81H81a3.82 3.82 0 01-3.81-3.81V51.08A3.82 3.82 0 0181 47.27h38m-5.24 10a2 2 0 10-2-2 2 2 0 002 2m-6.47 0a2 2 0 10-2-2 2 2 0 002 2m-26.38 8.84h37.9a.59.59 0 00.59-.59V60.4a.6.6 0 00-.59-.59h-37.9a.6.6 0 00-.6.59v5.12a.59.59 0 00.6.59m0 7.92h37.9a.59.59 0 00.59-.59v-5.12a.6.6 0 00-.59-.59h-37.9a.6.6 0 00-.6.59v5.12a.59.59 0 00.6.59M119 45.15H81a5.94 5.94 0 00-5.93 5.93v97.84a5.94 5.94 0 005.93 5.93h38a5.94 5.94 0 005.93-5.93V51.08a5.94 5.94 0 00-5.93-5.93zM82.44 61.93h34.84V64H82.44v-2.07zm0 7.92h34.84v2.06H82.44v-2.06z" fill="#1a7d71"/><rect x="39.76" y="37.28" width="120.47" height="125.44" rx="10.03" ry="10.03" stroke-width="2.12" stroke-dasharray="5.45" fill="none" stroke="#1a7d71" stroke-miterlimit="10"/><rect x="31.33" y="28.5" width="137.34" height="143" rx="11.43" ry="11.43" stroke-width="4" fill="none" stroke="#1a7d71" stroke-miterlimit="10"/></svg>