<svg data-name="Layer 1" xmlns="http://www.w3.org/2000/svg" viewBox="0 0 200 200"><path d="M145.12 79.34H54.88a8 8 0 00-8 8v20.26a8 8 0 008 8H63v.07a5 5 0 0010 0v-.07h48.67v.07a5 5 0 0010 0v-.07H145a8 8 0 008-8V87.31a8 8 0 00-7.88-7.97zm-28 8.58a3 3 0 113 3 3 3 0 01-2.97-3zm11.91 3a3 3 0 113-3 3 3 0 01-2.97 3.02zm9.25 0a3 3 0 113-3 3 3 0 01-2.97 3.02z" stroke-width="2.43" fill="none" stroke="#1a7d71" stroke-miterlimit="10"/><rect x="39.76" y="37.28" width="120.47" height="125.44" rx="10.03" ry="10.03" stroke-width="2.12" stroke-dasharray="5.45" fill="none" stroke="#1a7d71" stroke-miterlimit="10"/><rect x="31.33" y="28.5" width="137.34" height="143" rx="11.43" ry="11.43" stroke-width="4" fill="none" stroke="#1a7d71" stroke-miterlimit="10"/></svg>