<svg id="Layer_1" data-name="Layer 1" xmlns="http://www.w3.org/2000/svg" viewBox="0 0 200 200"><defs><style>.cls-1,.cls-3{fill:none;stroke:#eb5b28}.cls-1{stroke-miterlimit:10;stroke-width:4px}.cls-2{fill:#eb5b28}.cls-3{stroke-linejoin:round;stroke-width:2px}</style></defs><path class="cls-1" d="M165.57 100H180"/><path class="cls-2" d="M159.05 108.52a8.52 8.52 0 10-8.52-8.52 8.53 8.53 0 008.52 8.52zm0-15a6.52 6.52 0 11-6.52 6.52 6.52 6.52 0 016.52-6.52z"/><path class="cls-1" d="M34.43 100H20"/><path class="cls-2" d="M41 91.48a8.52 8.52 0 108.47 8.52A8.53 8.53 0 0041 91.48zm0 15a6.52 6.52 0 116.47-6.48 6.52 6.52 0 01-6.47 6.52z"/><path class="cls-3" d="M113.14 100.26c0 19.2-5.87 34.39-12.86 34.39s-12.44-15.19-12.44-34.39 5.66-34.75 12.65-34.75 12.65 15.56 12.65 34.75z"/><ellipse class="cls-3" cx="100.01" cy="100.38" rx="34.85" ry="12.66"/><path class="cls-3" d="M115.42 68.52c6.07 5.88 10.23 17.85 10.23 31.67s-4.08 25.15-10.16 31M84.79 131.31c-5.66-6.09-9.23-17.57-9.23-30.76 0-14.49 5.34-27.74 11.93-33.22M100.14 66.26v67.83"/><path class="cls-3" d="M131.16 115.64c-6 5.84-17.26 9.87-30.62 9.87-15 0-27.63-5.37-32.72-12.38M65.78 94c0-10.35 16-18.61 34.59-18.61s33.13 8.09 34.13 18.89M134.64 100L65 99.55"/><circle class="cls-3" cx="100.14" cy="100" r="34.86"/></svg>