<?xml version="1.0" encoding="UTF-8" standalone="no"?>
<svg
   id="Layer_1"
   data-name="Layer 1"
   viewBox="0 0 200 200"
   version="1.1"
   sodipodi:docname="www-smaller.svg"
   inkscape:version="1.1.2 (b8e25be833, 2022-02-05)"
   xmlns:inkscape="http://www.inkscape.org/namespaces/inkscape"
   xmlns:sodipodi="http://sodipodi.sourceforge.net/DTD/sodipodi-0.dtd"
   xmlns="http://www.w3.org/2000/svg"
   xmlns:svg="http://www.w3.org/2000/svg">
  <sodipodi:namedview
     id="namedview25"
     pagecolor="#ffffff"
     bordercolor="#666666"
     borderopacity="1.0"
     inkscape:pageshadow="2"
     inkscape:pageopacity="0.0"
     inkscape:pagecheckerboard="0"
     showgrid="false"
     inkscape:zoom="4.365"
     inkscape:cx="100.11455"
     inkscape:cy="100.11455"
     inkscape:window-width="2560"
     inkscape:window-height="1369"
     inkscape:window-x="-8"
     inkscape:window-y="-8"
     inkscape:window-maximized="1"
     inkscape:current-layer="Layer_1" />
  <defs
     id="defs4">
    <style
       id="style2">.cls-1,.cls-2{fill:none;stroke:#1c1f3d;stroke-linejoin:round}.cls-1{stroke-width:3px}.cls-2{stroke-width:4px}.cls-3{fill:#1c1f3d}</style>
  </defs>
  <g
     id="g860"
     transform="matrix(0.58870078,0,0,0.58771499,41.129922,41.228501)"
     style="stroke-width:1.70008">
    <path
       class="cls-1"
       d="m 118.41,100.37 c 0,26.89 -8.23,48.17 -18,48.17 -9.77,0 -17.41,-21.28 -17.41,-48.17 0,-26.89 7.93,-48.69 17.72,-48.69 9.79,0 17.69,21.8 17.69,48.69 z"
       id="path6" />
    <ellipse
       class="cls-1"
       cx="100.02"
       cy="100.54"
       rx="48.82"
       ry="17.73"
       id="ellipse8" />
    <path
       class="cls-1"
       d="m 121.61,55.89 c 8.5,8.24 14.32,25 14.32,44.37 0,19.37 -5.71,35.25 -14.23,43.48 m -43.01,0.13 c -7.92,-8.55 -12.93,-24.62 -12.93,-43.1 0,-20.3 7.48,-38.86 16.72,-46.54 m 17.71,-1.49 v 95.01"
       id="path10" />
    <path
       class="cls-1"
       d="m 143.66,121.91 c -8.35,8.18 -24.19,13.83 -42.9,13.83 -20.94,0 -38.71,-7.53 -45.85,-17.34 M 52.05,91.63 c 0,-14.5 22.35,-26.06 48.47,-26.06 26.12,0 46.41,11.32 47.82,26.43 m 0.19,8 -97.56,-0.63"
       id="path12" />
    <circle
       class="cls-1"
       cx="100.19"
       cy="100"
       r="48.84"
       id="circle14" />
  </g>
  <path
     class="cls-2"
     d="M170.73 171.57H25V50.48"
     id="path16" />
  <path
     class="cls-3"
     d="M41.95 70.4L25 53.44 8.05 70.4V56.01L25 39.05l16.95 16.96V70.4z"
     id="path18" />
  <path
     class="cls-2"
     d="M29.27 28.43H175v121.09"
     id="path20" />
  <path
     class="cls-3"
     d="M158.05 129.6L175 146.56l16.95-16.96v14.39L175 160.94l-16.95-16.95V129.6z"
     id="path22" />
</svg>
