<svg id="Layer_1" data-name="Layer 1" xmlns="http://www.w3.org/2000/svg" viewBox="0 0 200 200"><defs><style>.cls-1,.cls-2{fill:none;stroke:#1c1f3d;stroke-linejoin:round}.cls-1{stroke-width:3px}.cls-2{stroke-width:4px}.cls-3{fill:#1c1f3d}</style></defs><path class="cls-1" d="M118.41 100.37c0 26.89-8.23 48.17-18 48.17S83 127.26 83 100.37s7.93-48.69 17.72-48.69 17.69 21.8 17.69 48.69z"/><ellipse class="cls-1" cx="100.02" cy="100.54" rx="48.82" ry="17.73"/><path class="cls-1" d="M121.61 55.89c8.5 8.24 14.32 25 14.32 44.37s-5.71 35.25-14.23 43.48M78.69 143.87c-7.92-8.55-12.93-24.62-12.93-43.1 0-20.3 7.48-38.86 16.72-46.54M100.19 52.74v95.01"/><path class="cls-1" d="M143.66 121.91c-8.35 8.18-24.19 13.83-42.9 13.83-20.94 0-38.71-7.53-45.85-17.34M52.05 91.63c0-14.5 22.35-26.06 48.47-26.06S146.93 76.89 148.34 92M148.53 100l-97.56-.63"/><circle class="cls-1" cx="100.19" cy="100" r="48.84"/><path class="cls-2" d="M170.73 171.57H25V50.48"/><path class="cls-3" d="M41.95 70.4L25 53.44 8.05 70.4V56.01L25 39.05l16.95 16.96V70.4z"/><path class="cls-2" d="M29.27 28.43H175v121.09"/><path class="cls-3" d="M158.05 129.6L175 146.56l16.95-16.96v14.39L175 160.94l-16.95-16.95V129.6z"/></svg>